<?xml version="1.0" encoding="utf-8"?>
<!-- Generator: Adobe Illustrator 27.0.0, SVG Export Plug-In . SVG Version: 6.00 Build 0)  -->
<svg version="1.1" id="Layer_1" xmlns="http://www.w3.org/2000/svg" xmlns:xlink="http://www.w3.org/1999/xlink" x="0px" y="0px"
	 viewBox="0 0 21.3 22" style="enable-background:new 0 0 21.3 22;" xml:space="preserve">
<style type="text/css">
	.st0{fill:#FFFFFF;}
</style>
<path class="st0" d="M10.4,9.1H8.8c-0.1,0-0.1,0.1-0.1,0.1v1.6c0,0.1,0.1,0.1,0.1,0.1h1.6c0.1,0,0.1-0.1,0.1-0.1V9.2
	C10.5,9.1,10.5,9.1,10.4,9.1z M1.8,18.2c-0.4,0-0.7-0.3-0.7-0.7l0-10.4c0-0.4,0.3-0.7,0.7-0.7h15.7c0.4,0,0.7,0.3,0.7,0.7v5.4
	c0.4,0.1,0.8,0.2,1.1,0.4V3.8c0-0.6-0.5-1.2-1.2-1.2h-1.2v0.9c0,0.5-0.4,0.9-0.9,0.9h-1.3c-0.5,0-0.9-0.4-0.9-0.9l0-0.9H5.5v0.9
	c0,0.5-0.4,0.9-0.9,0.9H3.3c-0.5,0-0.9-0.4-0.9-0.9l0-0.9H1.2C0.5,2.6,0,3.2,0,3.8v14.3c0,0.6,0.5,1.2,1.2,1.2h10.8
	c-0.1-0.3-0.2-0.7-0.2-1L1.8,18.2L1.8,18.2z M10.4,13.8H8.8c-0.1,0-0.1,0.1-0.1,0.1v1.6c0,0.1,0.1,0.1,0.1,0.1h1.6
	c0.1,0,0.1-0.1,0.1-0.1V14C10.5,13.9,10.5,13.8,10.4,13.8z M5.4,13.8H3.9c-0.1,0-0.1,0.1-0.1,0.1v1.6c0,0.1,0.1,0.1,0.1,0.1h1.6
	c0.1,0,0.1-0.1,0.1-0.1V14C5.6,13.9,5.5,13.8,5.4,13.8z M5.4,9.1H3.9c-0.1,0-0.1,0.1-0.1,0.1v1.6c0,0.1,0.1,0.1,0.1,0.1h1.6
	c0.1,0,0.1-0.1,0.1-0.1V9.2C5.6,9.1,5.5,9.1,5.4,9.1z M15.4,10.9c0.1,0,0.1-0.1,0.1-0.1V9.2c0-0.1-0.1-0.1-0.1-0.1h-1.6
	c-0.1,0-0.1,0.1-0.1,0.1v1.6c0,0.1,0.1,0.1,0.1,0.1L15.4,10.9z M3.3,3.7h1.3c0.1,0,0.1-0.1,0.1-0.1l0-3.4C4.7,0.1,4.6,0,4.6,0H3.3
	C3.2,0,3.1,0.1,3.1,0.1v2.1c0,0,0,0,0,0s0,0,0,0v1.3C3.1,3.6,3.2,3.7,3.3,3.7L3.3,3.7z M16.9,13.2c-2.4,0-4.4,2-4.4,4.4
	s2,4.4,4.4,4.4s4.4-2,4.4-4.4S19.3,13.2,16.9,13.2z M19,18h-2.1c-0.2,0-0.4-0.2-0.4-0.4v-3.3c0-0.2,0.2-0.4,0.4-0.4
	c0.2,0,0.4,0.2,0.4,0.4v2.9H19c0.2,0,0.4,0.2,0.4,0.4C19.4,17.8,19.2,18,19,18z M14.7,3.7H16c0.1,0,0.1-0.1,0.1-0.1l0-3.4
	C16.1,0.1,16.1,0,16,0h-1.3c-0.1,0-0.1,0.1-0.1,0.1v3.4C14.6,3.6,14.6,3.7,14.7,3.7L14.7,3.7z M16.9,12.4c0.2,0,0.3,0,0.5,0V7.3H1.9
	v10.2h9.8C11.7,14.6,14,12.4,16.9,12.4L16.9,12.4z M6.4,15.5c0,0.5-0.4,0.9-0.9,0.9H3.9C3.4,16.4,3,16,3,15.5V14
	C3,13.4,3.4,13,3.9,13h1.6c0.5,0,0.9,0.4,0.9,0.9V15.5z M6.4,10.8c0,0.5-0.4,0.9-0.9,0.9H3.9c-0.5,0-0.9-0.4-0.9-0.9V9.2
	c0-0.5,0.4-0.9,0.9-0.9h1.6c0.5,0,0.9,0.4,0.9,0.9V10.8z M11.3,15.5c0,0.5-0.4,0.9-0.9,0.9H8.8c-0.5,0-0.9-0.4-0.9-0.9V14
	c0-0.5,0.4-0.9,0.9-0.9h1.6c0.5,0,0.9,0.4,0.9,0.9L11.3,15.5z M11.3,10.8c0,0.5-0.4,0.9-0.9,0.9H8.8c-0.5,0-0.9-0.4-0.9-0.9V9.2
	c0-0.5,0.4-0.9,0.9-0.9h1.6c0.5,0,0.9,0.4,0.9,0.9L11.3,10.8z M12.9,10.8V9.2c0-0.5,0.4-0.9,0.9-0.9h1.6c0.5,0,0.9,0.4,0.9,0.9v1.6
	c0,0.5-0.4,0.9-0.9,0.9h-1.6C13.3,11.7,12.9,11.3,12.9,10.8z"/>
</svg>
