<?xml version="1.0" encoding="utf-8"?>
<!-- Generator: Adobe Illustrator 27.0.0, SVG Export Plug-In . SVG Version: 6.00 Build 0)  -->
<svg version="1.1" id="Layer_1" xmlns="http://www.w3.org/2000/svg" xmlns:xlink="http://www.w3.org/1999/xlink" x="0px" y="0px"
	 viewBox="0 0 87.5 87.5" style="enable-background:new 0 0 87.5 87.5;" xml:space="preserve">
<style type="text/css">
	.st0{fill:#FFFFFF;}
</style>
<path class="st0" d="M87.5,43.7c0,17.6-10.5,33.4-26.7,40.3c-1.6,0.7-3.4-0.1-4.1-1.7c-0.7-1.6,0.1-3.4,1.7-4.1
	c13.9-5.9,22.9-19.5,22.9-34.6c0-20.7-16.8-37.5-37.5-37.5C23.1,6.2,6.3,23.1,6.3,43.7c0,15.2,9.1,28.8,23.1,34.6
	c1.6,0.7,2.3,2.5,1.7,4.1c-0.5,1.2-1.7,1.9-2.9,1.9c-0.4,0-0.8-0.1-1.2-0.2C10.6,77.4,0,61.5,0,43.8C0,19.6,19.6,0,43.8,0
	S87.5,19.6,87.5,43.7L87.5,43.7z M59.4,40.6c0-0.9-0.4-1.8-1.1-2.4L46.2,23c0,0,0,0,0,0c-0.1-0.2-0.3-0.3-0.5-0.4
	c-0.1-0.1-0.2-0.2-0.3-0.3c0,0,0,0,0,0c-0.1-0.1-0.3-0.1-0.4-0.1c-0.2-0.1-0.4-0.2-0.6-0.2c-0.2,0-0.4,0-0.5,0c-0.2,0-0.4,0-0.5,0
	c-0.2,0-0.4,0.1-0.6,0.2c-0.1,0.1-0.3,0.1-0.4,0.1c0,0,0,0,0,0c-0.1,0.1-0.2,0.2-0.4,0.3c-0.2,0.1-0.3,0.2-0.5,0.4c0,0,0,0,0,0
	L28.8,38.7c-0.8,0.9-0.9,2.2-0.4,3.3c0.5,1.1,1.6,1.8,2.8,1.8h6.2v37.5c0,3.4,2.8,6.2,6.2,6.2s6.2-2.8,6.2-6.2V43.7h6.2h0.1
	C58,43.7,59.4,42.4,59.4,40.6L59.4,40.6z"/>
</svg>
