<?xml version="1.0" encoding="utf-8"?>
<!-- Generator: Adobe Illustrator 27.0.0, SVG Export Plug-In . SVG Version: 6.00 Build 0)  -->
<svg version="1.1" id="Layer_1" xmlns="http://www.w3.org/2000/svg" xmlns:xlink="http://www.w3.org/1999/xlink" x="0px" y="0px"
	 viewBox="0 0 84.7 80" style="enable-background:new 0 0 84.7 80;" xml:space="preserve">
<style type="text/css">
	.st0{fill:#CF9D4B;}
</style>
<path class="st0" d="M16.8,20.2v4.4c0,0.7,0.5,1.2,1.2,1.2h6.4c0.7,0,1.2-0.5,1.2-1.2v-4.4H30c0.7,0,1.2-0.5,1.2-1.2v-6.4
	c0-0.7-0.5-1.2-1.2-1.2h-4.4V7c0-0.7-0.5-1.2-1.2-1.2H18c-0.7,0-1.2,0.5-1.2,1.2v4.4h-4.4c-0.7,0-1.2,0.5-1.2,1.2V19
	c0,0.7,0.5,1.2,1.2,1.2H16.8z M13.7,13.8H18c0.7,0,1.2-0.5,1.2-1.2V8.2h4v4.4c0,0.7,0.5,1.2,1.2,1.2h4.4v4h-4.4
	c-0.7,0-1.2,0.5-1.2,1.2v4.4h-4V19c0-0.7-0.5-1.2-1.2-1.2h-4.4V13.8z M69.2,49.2l-14.9,4.4c-0.8-1.6-2.2-2.8-4-3.3l-10.6-2.8
	c-3.1-2.1-5.6-3.2-7.8-3.5c-3.5-0.5-6.4,0.8-10.2,2.6c-2.8,1.4-5.7,2.7-8.5,4.1c-0.2-0.4-0.4-0.9-0.6-1.3l0,0
	c-0.8-1.9-2.9-2.7-4.8-2l-5.7,2.4c-0.9,0.4-1.6,1-2,2c-0.4,0.9-0.4,1.9,0,2.8C3.5,62.3,6.8,70,10,77.8c0.8,1.9,2.9,2.7,4.8,2
	l5.7-2.4l0,0c0.9-0.4,1.6-1.1,2-2l0,0c0.4-0.9,0.4-1.9,0-2.8l0,0c-0.2-0.5-0.4-1-0.6-1.5l3.7-1.8c1.3-0.7,2.7-0.8,4.1-0.4l0,0
	l11.9,3.5c4,1.2,9-0.9,12.7-2.3l22.3-8.6c2.5-1,4.3-3.4,4.9-5.8c0.4-1.8,0.1-3.5-0.9-4.9C79,48.7,75.5,47.4,69.2,49.2z M20.2,74.5
	c-0.1,0.3-0.4,0.5-0.7,0.7l0,0l-5.7,2.4c-0.6,0.3-1.4,0-1.6-0.7l0,0C9,69.1,5.7,61.3,2.5,53.6l0,0c-0.1-0.3-0.1-0.6,0-0.9
	c0.1-0.3,0.4-0.5,0.7-0.7l5.7-2.4c0.6-0.3,1.4,0,1.6,0.7c0.3,0.8,9.3,22.4,9.7,23.3C20.3,73.8,20.3,74.1,20.2,74.5z M79.1,55.1
	c-0.4,1.7-1.6,3.4-3.4,4.1l-22.3,8.6c-1.7,0.7-3.7,1.5-5.7,2c-1.9,0.5-3.7,0.7-5.4,0.2l-11.9-3.5c-2-0.6-4-0.4-5.9,0.5l-3.6,1.7h0
	c-2.2-5.3-4.4-10.6-6.6-16c2.9-1.4,5.8-2.7,8.6-4.1c3.3-1.6,5.8-2.8,8.8-2.4c2,0.3,4.2,1.2,6.9,3.2c0.1,0.1,0.2,0.1,0.4,0.2
	l10.8,2.9c2,0.5,3.3,2.7,2.7,4.7c-0.5,2-2.7,3.3-4.7,2.7l0,0l-14.3-3.8c-0.6-0.2-1.3,0.2-1.5,0.9c-0.2,0.6,0.2,1.3,0.9,1.5l14.3,3.8
	c3.3,0.9,6.8-1.1,7.7-4.4c0.2-0.7,0.2-1.4,0.2-2.1l14.9-4.4c2.6-0.8,4.5-0.9,6.1-0.7c1.3,0.2,2.1,0.7,2.6,1.4
	C79.2,53,79.3,54.1,79.1,55.1z M21.2,31.6c8.7,0,15.8-7.1,15.8-15.8S30,0,21.2,0S5.4,7.1,5.4,15.8S12.5,31.6,21.2,31.6z M21.2,2.4
	c7.4,0,13.4,6,13.4,13.4c0,7.4-6,13.4-13.4,13.4s-13.4-6-13.4-13.4C7.8,8.4,13.8,2.4,21.2,2.4z M84.4,37.1c-2.3-2.7-4.7-4.6-7.2-5.7
	c1.2-2.8,1.6-6.2,1.1-10.3c-0.1-0.6-0.5-1-1-1.1c-3.3-0.4-6.2-0.3-8.7,0.5c-0.8-4.6-3.8-9.1-9.1-13.1c-0.4-0.3-1.1-0.3-1.5,0
	c-5,4.1-7.8,8.4-8.5,12.9c-2.3-0.5-4.9-0.6-8-0.3c-0.6,0.1-1,0.5-1,1.1c-0.5,4.1-0.1,7.5,1.1,10.3c-2.4,1.1-4.8,2.9-7.1,5.6
	c-0.4,0.4-0.4,1-0.1,1.5c3.5,5,7.5,7.5,11.8,7.7c4,0.2,8.4-1.7,13.1-5.8l0,0h0l0,0c4.7,4.1,9.1,5.9,13.1,5.8
	c4.3-0.2,8.3-2.7,11.8-7.7C84.8,38.1,84.8,37.5,84.4,37.1z M68.9,23L68.9,23c2-0.7,4.4-0.9,7.2-0.6c0.3,3.3-0.1,6.1-1.1,8.4
	c-1-0.2-2-0.3-3-0.3c-1.8,0.1-3.6,0.5-5.5,1.4C68.2,28.8,69,25.9,68.9,23z M42.9,22.4c2.5-0.2,4.7-0.1,6.5,0.4c0,0,0,0,0,0.1
	c0.1,2.9,1,5.8,2.7,8.9c-1.7-0.8-3.4-1.2-5.1-1.3c-1,0-2,0-3,0.3C43,28.4,42.6,25.7,42.9,22.4z M46.5,43.9C43,43.7,39.9,41.7,37,38
	c3.2-3.5,6.4-5.2,9.9-5.1c3.2,0.1,6.5,1.9,10,5.2c0.3,0.3,0.5,0.6,0.8,0.8C53.7,42.3,49.9,44,46.5,43.9z M60.5,36.2
	c-0.3,0.3-0.7,0.6-1,1c-0.3-0.3-0.6-0.6-0.9-0.8c-4.4-4.7-6.7-9.2-6.8-13.5c-0.1-4.5,2.3-8.8,7-12.9c5,4,7.6,8.3,7.7,12.9
	C66.6,27.1,64.6,31.6,60.5,36.2L60.5,36.2z M72.5,43.9c-3.5,0.2-7.2-1.5-11.2-5l0,0v0h0c0.3-0.3,0.6-0.7,1-1c3.4-3.2,6.7-4.9,9.8-5
	c3.5-0.1,6.7,1.6,9.9,5.1C79.1,41.7,76,43.7,72.5,43.9z"/>
</svg>
