<?xml version="1.0" encoding="utf-8"?>
<!-- Generator: Adobe Illustrator 27.0.0, SVG Export Plug-In . SVG Version: 6.00 Build 0)  -->
<svg version="1.1" id="Layer_1" xmlns="http://www.w3.org/2000/svg" xmlns:xlink="http://www.w3.org/1999/xlink" x="0px" y="0px"
	 viewBox="0 0 70 80" style="enable-background:new 0 0 70 80;" xml:space="preserve">
<style type="text/css">
	.st0{fill-rule:evenodd;clip-rule:evenodd;fill:#CF9D4B;}
</style>
<path class="st0" d="M45.2,61.4h21c0.8,0,1.4-0.6,1.4-1.4v-6.1c0-0.8-0.6-1.4-1.4-1.4H47.4C47.3,55.5,46.5,58.6,45.2,61.4L45.2,61.4
	z M50.8,37.8v12.3h15.5c2.1,0,3.8,1.7,3.8,3.8V60c0,1-0.4,1.9-1,2.6c0.7,0.7,1,1.6,1,2.6v6.1c0,2.1-1.7,3.8-3.8,3.8H26.3
	c-0.2,0-0.5,0-0.7-0.1C25,75,24.4,75,23.7,75C10.6,75,0,64.4,0,51.3c0-13.1,10.6-23.7,23.7-23.7c12.6,0,23.1,9.9,23.7,22.6h1V37.8
	l-3-5.2c-5.4-0.8-10.3-5-13.1-10c-1.7-2.9-2.6-5.9-3-8.8c-0.3-3,0-5.8,1.1-8.2l0,0C30.6,5.2,31.1,5,31.6,5c2.6,0.2,5.2,1.3,7.6,3.1
	c4.9,3.6,8.4,9.7,9.1,15.7c0.3,2.8,0,5.4-0.9,7.6l2.2,3.7l2.2-3.7c-0.9-2.2-1.2-4.8-0.9-7.6c0.7-6,4.2-12.1,9.1-15.7
	C62.4,6.3,65,5.2,67.6,5c0.5,0,1,0.2,1.2,0.7l0,0c1.1,2.3,1.5,5.2,1.1,8.2c-0.7,6-4.2,12.1-9.1,15.7c-2.2,1.7-4.7,2.7-7,3L50.8,37.8
	L50.8,37.8z M43.8,29.8l-6-10.4c-0.3-0.6-0.1-1.3,0.4-1.6c0.6-0.3,1.3-0.1,1.6,0.4l0,0l6,10.4c0.8-4-0.3-8.6-2.5-12.4
	c-2.4-4.2-6.5-8-11.1-8.8c-0.6,1.8-0.8,3.9-0.6,6.1c0.6,5.4,3.8,10.9,8.1,14.1C41,28.6,42.3,29.3,43.8,29.8L43.8,29.8z M53.4,28.7
	l6-10.4c0.3-0.6,1-0.7,1.6-0.4c0.6,0.3,0.7,1,0.4,1.6l-6,10.4c3.9-1.3,7.3-4.6,9.5-8.4c2.4-4.2,3.6-9.6,2.1-14
	c-4.6,0.8-8.7,4.6-11.1,8.8C53.7,20,52.5,24.6,53.4,28.7L53.4,28.7z M29.4,47.4c0-2.5-2.1-4.5-4.5-4.9v-2.1c0-0.6-0.5-1.2-1.2-1.2
	c-0.6,0-1.2,0.5-1.2,1.2v2.1c-2.5,0.5-4.5,2.4-4.5,4.9c0,2.9,2.7,5,5.7,5c2.9,0,4.4,2.8,2.4,4.5c-2.1,1.8-5.8,0.6-5.8-1.8
	c0-0.6-0.5-1.2-1.2-1.2c-0.6,0-1.2,0.5-1.2,1.2c0,2.5,2.1,4.5,4.5,4.9v2.1c0,0.6,0.5,1.2,1.2,1.2c0.6,0,1.2-0.5,1.2-1.2v-2.1
	c2.5-0.5,4.5-2.4,4.5-4.9c0-2.9-2.7-5-5.7-5c-2.9,0-4.4-2.8-2.4-4.5c2.1-1.8,5.8-0.6,5.8,1.8c0,0.6,0.5,1.2,1.2,1.2
	S29.4,48.1,29.4,47.4L29.4,47.4z M23.7,33.6c-9.7,0-17.6,7.9-17.6,17.6S14,68.9,23.7,68.9c9.7,0,17.6-7.9,17.6-17.6c0,0,0,0,0,0
	C41.4,41.5,33.5,33.6,23.7,33.6L23.7,33.6z M34.5,40.5c-6-6-15.7-6-21.6,0s-6,15.7,0,21.6s15.7,6,21.6,0c0,0,0,0,0,0
	C40.5,56.1,40.5,46.4,34.5,40.5z M45.1,51.3c0-11.8-9.6-21.4-21.4-21.4c-11.8,0-21.4,9.6-21.4,21.4c0,11.8,9.6,21.4,21.4,21.4
	C35.5,72.6,45.1,63.1,45.1,51.3C45.1,51.3,45.1,51.3,45.1,51.3z M34,72.6h32.2c0.8,0,1.4-0.6,1.4-1.4v-6.1c0-0.8-0.6-1.4-1.4-1.4
	H43.9C41.5,67.6,38.1,70.7,34,72.6L34,72.6z"/>
</svg>
