<?xml version="1.0" encoding="utf-8"?>
<!-- Generator: Adobe Illustrator 27.0.0, SVG Export Plug-In . SVG Version: 6.00 Build 0)  -->
<svg version="1.1" id="svg4047" xmlns:svg="http://www.w3.org/2000/svg"
	 xmlns="http://www.w3.org/2000/svg" xmlns:xlink="http://www.w3.org/1999/xlink" x="0px" y="0px" viewBox="0 0 80.1 80"
	 style="enable-background:new 0 0 80.1 80;" xml:space="preserve">
<style type="text/css">
	.st0{fill:#CF9D4B;}
</style>
<path class="st0" d="M79.7,53.1l-0.9-0.9c-1.1-1.1-1.8-2.5-2.2-4c-0.6-3-2.1-5.8-4.3-8L60.6,28.5c-1.7-1.7-4.4-1.7-6.1,0
	c-0.5,0.5-0.9,1.1-1.1,1.7l-1.8-1.8c1.6-0.3,2.9-1.8,2.9-3.5V12.2c0-2.4-0.7-4.8-2-6.9c-0.6-1-0.9-2.1-0.9-3.2v-1
	C51.6,0.5,51,0,50.4,0H34.7c-0.6,0-1.2,0.5-1.2,1.2v1.7c0,0.6-0.2,1.2-0.7,1.6L22.2,15.1c-0.8,0.8-1.3,2-1.3,3.2
	c0,1.2,0.5,2.3,1.3,3.2c1.7,1.7,4.6,1.7,6.3,0l1-1v2.9c-0.5-0.2-1-0.2-1.5-0.2c-1.3,0-2.6,0.5-3.6,1.5L13.8,35.3v-2.7
	c0-3-2.4-5.5-5.5-5.5c-1.5,0-2.8,0.6-3.9,1.6c-1,1-1.6,2.4-1.6,3.9v11.1c0,0.6,0.5,1.2,1.2,1.2s1.2-0.5,1.2-1.2V32.6
	c0-0.8,0.3-1.6,0.9-2.2c0.6-0.6,1.4-0.9,2.2-0.9c1.7,0,3.1,1.4,3.1,3.1v6.8c0,0.3,0.1,0.6,0.4,0.8l2.1,2.1c2,2,2.5,5.1,1.3,7.7
	c-0.3,0.6-0.1,1.3,0.5,1.6c0.2,0.1,0.3,0.1,0.5,0.1c0.4,0,0.8-0.2,1.1-0.7c1.7-3.5,1-7.6-1.7-10.4l-1.8-1.8v-0.3l12.4-12.4
	c0.5-0.5,1.2-0.8,1.9-0.8c0.5,0,1.1,0.2,1.5,0.5v4.5l-9.4,9.4c-0.5,0.5-0.5,1.2,0,1.7c0.2,0.2,0.5,0.3,0.8,0.3s0.6-0.1,0.8-0.3
	l8.2-8.2c0.7,1.3,2.1,2.3,3.7,2.3c0.2,0,0.3,0,0.5,0c0.1,0.4,0.3,0.7,0.6,1.1c-0.9,0.2-1.8,0.6-2.5,1.4c-0.6,0.6-1,1.2-1.2,1.9
	l-4.4,4.4c-0.5,0.5-0.5,1.2,0,1.7c0.2,0.2,0.5,0.3,0.8,0.3s0.6-0.1,0.8-0.3l2.7-2.7c0.2,0.7,0.6,1.3,1.2,1.9l2.3,2.3l-3,3
	c-0.5,0.5-0.5,1.2,0,1.7c0.2,0.2,0.5,0.3,0.8,0.3c0.3,0,0.6-0.1,0.8-0.3l3-3l2.8,2.8L28,62.7c0,0-0.1-0.1-0.1-0.1
	c-2.4-2.4-6.2-2.4-8.5,0l-0.9,0.9l-0.9-0.9c-2.4-2.4-6.2-2.4-8.5,0c-0.1,0.1-0.2,0.2-0.2,0.3l-5.9-5.9l0.7-0.7
	c1.1-1.1,1.7-2.5,1.7-4v-3.8c0-0.6-0.5-1.2-1.2-1.2s-1.2,0.5-1.2,1.2v3.8c0,0.9-0.4,1.7-1,2.3L0.3,56c-0.5,0.5-0.5,1.2,0,1.7
	l7.2,7.2c-0.2,0.6-0.3,1.2-0.3,1.9c0,1.6,0.6,3.1,1.8,4.3l8.6,8.6c0.2,0.2,0.5,0.3,0.8,0.3c0.3,0,0.6-0.1,0.8-0.3l8.6-8.6
	c1.1-1.1,1.8-2.7,1.8-4.3c0-0.7-0.1-1.4-0.4-2.1c0,0,0,0,0.1-0.1l6.3-6.3c-0.5,0.8-0.8,1.8-0.8,2.9c0,1.5,0.6,2.8,1.6,3.9
	c1,1,2.4,1.6,3.9,1.6h19.5c0,0,0,0,0,0c0.9,0,1.7,0.3,2.3,1l1.5,1.5c0.2,0.2,0.5,0.3,0.8,0.3s0.6-0.1,0.8-0.3l14.4-14.4
	c0.2-0.2,0.3-0.5,0.3-0.8S79.9,53.4,79.7,53.1z M26.2,69.4l-7.8,7.8l-7.8-7.8c-0.7-0.7-1.1-1.6-1.1-2.6s0.4-1.9,1.1-2.6
	c0.7-0.7,1.7-1.1,2.6-1.1c0.9,0,1.9,0.4,2.6,1.1l1.7,1.7c0.2,0.2,0.5,0.3,0.8,0.3c0.3,0,0.6-0.1,0.8-0.3l1.7-1.7
	c1.4-1.4,3.8-1.4,5.2,0c0.2,0.2,0.5,0.5,0.6,0.8c0,0,0,0,0,0.1c0.3,0.5,0.4,1.1,0.4,1.7C27.3,67.8,26.9,68.7,26.2,69.4z M33.7,33.2
	c-1,0-1.8-0.8-1.8-1.8v-0.5c0,0,0,0,0,0v-5.5c0,0,0,0,0,0v-7.3l0.3-0.3c0.5-0.5,0.5-1.2,0-1.7c-0.5-0.5-1.2-0.5-1.7,0l-3.7,3.7
	c-0.8,0.8-2.2,0.8-3,0c-0.4-0.4-0.6-0.9-0.6-1.5c0-0.6,0.2-1.1,0.6-1.5L34.5,6.1c0.9-0.9,1.4-2,1.4-3.3V2.3h13.3
	c0,1.5,0.5,3,1.3,4.3c1.1,1.7,1.6,3.6,1.6,5.6V25c0,0.7-0.6,1.2-1.2,1.2s-1.2-0.6-1.2-1.2v-4.7V18c0-0.6-0.5-1.2-1.2-1.2
	c-0.6,0-1.2,0.5-1.2,1.2v2.3V25v2.5c0,0,0,0,0,0v3.5c0,1-0.8,1.8-1.8,1.8c-0.3,0-0.5-0.1-0.7-0.1l-0.9-0.9c-0.1-0.2-0.1-0.5-0.1-0.7
	v-9.1v-1.1c0-0.6-0.5-1.2-1.2-1.2s-1.2,0.5-1.2,1.2v1.1v9.1v1c0,0,0,0,0,0v2c0,1-0.8,1.8-1.8,1.8c-1,0-1.8-0.8-1.8-1.8v-2.6v-9.5
	v-1.1c0-0.6-0.5-1.2-1.2-1.2s-1.2,0.5-1.2,1.2v1.1v9.5C35.5,32.4,34.7,33.2,33.7,33.2z M40.6,53.4l2.4,2.4h-2.7
	c-1.1,0-2,0.3-2.9,0.8L40.6,53.4z M64.5,66.7L63.8,66c-1.1-1.1-2.5-1.7-4-1.7c0,0,0,0,0,0H40.3c-0.8,0-1.6-0.3-2.2-0.9
	c-0.6-0.6-0.9-1.4-0.9-2.2c0-1.7,1.4-3.1,3.1-3.1H47c0,0,0.1,0,0.1,0c0,0,0,0,0.1,0c0,0,0,0,0.1,0c0,0,0,0,0.1,0c0,0,0,0,0.1,0
	c0,0,0,0,0.1,0c0,0,0,0,0.1,0c0,0,0,0,0.1,0c0,0,0,0,0.1,0c0,0,0,0,0,0c0,0,0,0,0.1,0c0,0,0,0,0,0c0,0,0,0,0,0c0,0,0,0,0.1-0.1
	c0,0,0,0,0,0l2.1-2.1c2-2,5.1-2.5,7.7-1.3c0.6,0.3,1.3,0.1,1.6-0.5c0.3-0.6,0.1-1.3-0.5-1.6c-3.5-1.7-7.6-1-10.4,1.7l-1.8,1.8h-0.3
	L33.9,43.4c-0.5-0.5-0.8-1.2-0.8-1.9c0-0.7,0.3-1.4,0.8-1.9c1-1,2.7-1,3.8,0l0,0c0,0,0,0,0,0l9.8,9.8c0.5,0.5,1.2,0.5,1.7,0
	c0.5-0.5,0.5-1.2,0-1.7l-9.6-9.6c0,0,0.1,0,0.1,0c2,0,3.7-1.5,4.1-3.4l8.2,8.2c0.2,0.2,0.5,0.3,0.8,0.3c0.3,0,0.6-0.1,0.8-0.3
	c0.5-0.5,0.5-1.2,0-1.7l-6.5-6.5c1.5-0.6,2.6-2.1,2.6-3.9v-1.1l4.8,4.8c0,0,0,0,0,0l6.4,6.4c0.5,0.5,1.2,0.5,1.7,0
	c0.5-0.5,0.5-1.2,0-1.7l-2.1-2.1c0,0,0,0,0,0L56.1,33c-0.8-0.8-0.8-2,0-2.8c0.8-0.8,2-0.8,2.8,0l11.7,11.7c1.9,1.9,3.2,4.2,3.7,6.8
	c0.4,2,1.4,3.7,2.8,5.2l0.1,0.1L64.5,66.7z M59.5,16.5c-1.1-1.1-1.8-2.7-1.8-4.3s0.6-3.1,1.8-4.3c1.1-1.1,2.7-1.8,4.3-1.8
	c1.6,0,3.1,0.6,4.3,1.8l0.9,0.9L69.8,8c2.4-2.4,6.2-2.4,8.5,0c2.4,2.4,2.4,6.2,0,8.5l-0.7,0.7c-0.5,0.5-1.2,0.5-1.7,0
	c-0.5-0.5-0.5-1.2,0-1.7l0.7-0.7c1.4-1.4,1.4-3.8,0-5.2c-1.4-1.4-3.8-1.4-5.2,0l-1.7,1.7c-0.2,0.2-0.5,0.3-0.8,0.3s-0.6-0.1-0.8-0.3
	l-1.7-1.7c-0.7-0.7-1.6-1.1-2.6-1.1c-1,0-1.9,0.4-2.6,1.1c-0.7,0.7-1.1,1.6-1.1,2.6s0.4,1.9,1.1,2.6l7.8,7.8l3.7-3.7
	c0.5-0.5,1.2-0.5,1.7,0c0.5,0.5,0.5,1.2,0,1.7l-4.6,4.6c-0.2,0.2-0.5,0.3-0.8,0.3c-0.3,0-0.6-0.1-0.8-0.3L59.5,16.5z M10.2,23.9
	c0.2,0.2,0.5,0.3,0.8,0.3c0.3,0,0.6-0.1,0.8-0.3l6.3-6.3c0.9-0.9,1.4-2.1,1.4-3.4s-0.5-2.5-1.4-3.4c0,0,0,0,0,0
	c-1.9-1.9-4.9-1.9-6.7,0l-0.4,0.4l-0.4-0.4C8.8,9,5.7,9,3.9,10.9c-1.9,1.9-1.9,4.9,0,6.7L10.2,23.9z M5.6,12.5
	c0.5-0.5,1.1-0.7,1.7-0.7c0.6,0,1.2,0.2,1.7,0.7l1.3,1.3c0.2,0.2,0.5,0.3,0.8,0.3c0.3,0,0.6-0.1,0.8-0.3l1.3-1.3
	c0.9-0.9,2.5-0.9,3.4,0c0.5,0.5,0.7,1.1,0.7,1.7c0,0.6-0.3,1.3-0.7,1.7l-5.5,5.5L5.6,16C4.6,15,4.6,13.5,5.6,12.5z"/>
</svg>
