<?xml version="1.0" encoding="utf-8"?>
<!-- Generator: Adobe Illustrator 27.0.0, SVG Export Plug-In . SVG Version: 6.00 Build 0)  -->
<svg version="1.1" id="svg597" xmlns:svg="http://www.w3.org/2000/svg"
	 xmlns="http://www.w3.org/2000/svg" xmlns:xlink="http://www.w3.org/1999/xlink" x="0px" y="0px" viewBox="0 0 65.7 80"
	 style="enable-background:new 0 0 65.7 80;" xml:space="preserve">
<style type="text/css">
	.st0{fill:#CF9D4B;}
</style>
<path class="st0" d="M36.4,40.7c0-0.6,0.5-1.2,1.2-1.2s1.2,0.5,1.2,1.2c0,0.6-0.5,1.2-1.2,1.2S36.4,41.3,36.4,40.7z M65.7,78.8
	c0,0.6-0.5,1.2-1.2,1.2h-8H39H26.7H9.2h-8C0.5,80,0,79.5,0,78.8c0-8.8,3.4-17,9.6-23.2c3.5-3.5,7.7-6.2,12.3-7.8v-9.9
	c0-1.3,1-2.4,2.2-2.7v-4.2c0-0.8-0.2-1.5-0.7-2.1l-1.9-2.6c-0.4-0.5-0.3-1.3,0.3-1.6c0.5-0.4,1.3-0.3,1.6,0.3l1.9,2.6
	c0.7,1,1.1,2.2,1.1,3.5v4.1h12.7v-4.6c0-0.8,0.2-1.7,0.5-2.4l2.6-5.8c0.3-0.6,0.4-1.4,0.4-2.1l-0.2-2.2l-0.8,1
	c-0.7,0.9-1.8,1.3-2.9,1.3c-0.9,0-1.7-0.3-2.4-0.9v0c-0.7-0.6-1.2-1.5-1.3-2.4c-0.1,0-0.1,0-0.2,0c-0.9,0-1.7-0.3-2.4-0.9
	c-0.5-0.5-0.9-1-1.1-1.7c-0.6,0.4-1.3,0.6-2,0.6c-0.4,0-0.8-0.1-1.2-0.2l-1.7-0.6c-0.4-0.2-0.9,0-1.2,0.4l-0.9,1.1
	c-0.4,0.5-1.1,0.6-1.6,0.2c-0.5-0.4-0.6-1.1-0.2-1.6l0.9-1.1c0.9-1.2,2.4-1.6,3.8-1.1l1.7,0.6c0.1,0.1,0.3,0.1,0.5,0.1
	c0.6,0,1.1-0.3,1.3-0.9c0.3-0.7,0-1.5-0.7-1.8l-6.2-2.8c-0.9-0.4-2-0.1-2.5,0.7l-3.6,5.4c-0.8,1.2-0.8,2.8,0.1,4l2.4,3.3
	c0.4,0.5,0.3,1.3-0.3,1.6c-0.2,0.2-0.5,0.2-0.7,0.2c-0.4,0-0.7-0.2-0.9-0.5l-2.4-3.3c-1.4-1.9-1.5-4.6-0.2-6.6l3.6-5.4
	c1-1.5,2.8-2.2,4.5-1.9c0.1-0.2,0.2-0.4,0.4-0.5l2.5-3c0.6-0.8,1.5-1.2,2.5-1.3c1-0.1,2,0.2,2.7,0.9c0.7,0.6,1.2,1.5,1.3,2.4
	c0.9-0.1,1.9,0.2,2.6,0.9c0.7,0.6,1.2,1.5,1.3,2.4c1-0.1,1.9,0.3,2.6,0.9C40.6,8.2,41,9,41.1,10c1-0.1,1.9,0.3,2.6,0.9
	c0.8,0.6,1.2,1.5,1.3,2.5c0.1,0.7-0.1,1.4-0.4,2.1l0.4,4.7c0.1,1.1-0.1,2.2-0.6,3.2l-2.6,5.8c-0.2,0.5-0.3,1-0.3,1.4v4.7
	c1.3,0.2,2.2,1.4,2.2,2.7v9.9c0,0,0,0,0.1,0c3.4,1.2,6.6,3,9.4,5.2c0.5,0.4,0.6,1.1,0.2,1.6c-0.4,0.5-1.1,0.6-1.6,0.2
	c-2.9-2.3-6-4-9.4-5.1c-0.1,0-0.2,0-0.3-0.1c-3-0.9-6.1-1.4-9.3-1.4c-16.4,0-29.9,13-30.5,29.3h5.2C7.3,77.3,7,77.1,6.6,77
	c-0.9-0.2-1.4-1-1.3-1.9C5.4,74,5.6,72.8,6,71.6c0,0,0,0,0,0c0,0,0,0,0,0c0.3-1.2,0.7-2.3,1.1-3.4c0.3-0.8,1.2-1.2,2.1-1
	c0.8,0.3,1.7-0.1,2.2-0.9c0.4-0.8,0.3-1.7-0.3-2.3c-0.6-0.6-0.7-1.6-0.2-2.3c0.7-0.9,1.5-1.8,2.4-2.7c0,0,0,0,0,0c0,0,0,0,0,0
	c0.8-0.8,1.7-1.6,2.7-2.4c0.7-0.5,1.7-0.5,2.3,0.2c0.6,0.6,1.6,0.8,2.3,0.3c0.8-0.4,1.1-1.4,0.9-2.2c-0.3-0.8,0.2-1.7,1-2.1
	c1.1-0.5,2.2-0.8,3.4-1.1c0,0,0,0,0,0c0,0,0,0,0,0c1.2-0.3,2.3-0.5,3.5-0.7c0.9-0.1,1.7,0.4,1.9,1.3c0.2,0.9,0.9,1.5,1.8,1.5
	c0.9,0,1.6-0.6,1.8-1.5c0.2-0.9,1-1.4,1.9-1.3c1.2,0.2,2.4,0.4,3.5,0.7c0,0,0,0,0,0c0,0,0,0,0,0c1.2,0.3,2.3,0.7,3.4,1.1
	c0.8,0.3,1.2,1.2,1,2.1c-0.3,0.8,0.1,1.7,0.9,2.2c0.8,0.4,1.7,0.3,2.3-0.3c0.6-0.6,1.6-0.7,2.3-0.2c1.9,1.5,3.6,3.2,5,5
	c0.5,0.7,0.5,1.7-0.2,2.3c-0.6,0.6-0.8,1.6-0.3,2.3c0.4,0.8,1.4,1.1,2.2,0.9c0.8-0.3,1.7,0.2,2.1,1c0.5,1.1,0.8,2.2,1.1,3.4
	c0,0,0,0,0,0c0,0,0,0,0,0c0.3,1.2,0.5,2.3,0.7,3.5c0.1,0.9-0.4,1.7-1.3,1.9c-0.4,0.1-0.8,0.3-1,0.7h5.2c-0.3-7-3-13.8-7.7-19.1
	c-0.4-0.5-0.4-1.2,0.1-1.7c0.5-0.4,1.2-0.4,1.7,0.1C62.7,63,65.7,70.8,65.7,78.8z M32.4,6.2l-1,1.2l-0.5,0.6l0,0
	c0.9,0.4,1.6,1.2,1.9,2l1.7-2c0.2-0.3,0.3-0.6,0.3-0.9c0-0.4-0.2-0.8-0.5-1.1C33.8,5.5,32.9,5.6,32.4,6.2z M26,5.7l2.6,1.2l1.9-2.3
	c0.2-0.3,0.3-0.6,0.3-0.9c0-0.4-0.2-0.8-0.5-1.1c-0.3-0.2-0.7-0.4-1-0.3c-0.4,0-0.7,0.2-1,0.5L26,5.7z M35,14.7c0.4,0,0.7-0.2,1-0.5
	l2.5-3c0.5-0.6,0.4-1.5-0.2-2C38,9.1,37.7,9,37.4,9c0,0-0.1,0-0.1,0c-0.4,0-0.7,0.2-1,0.5l-2.5,3c-0.2,0.3-0.4,0.6-0.3,1
	c0,0.4,0.2,0.7,0.5,1c0,0,0,0,0,0C34.3,14.6,34.6,14.8,35,14.7z M42.4,14.6c0.2-0.3,0.4-0.6,0.3-1c0-0.4-0.2-0.7-0.5-1
	c-0.3-0.2-0.6-0.4-1-0.3c-0.4,0-0.7,0.2-1,0.5l-2.5,3c-0.2,0.3-0.4,0.6-0.3,1c0,0.4,0.2,0.7,0.5,1c0.6,0.5,1.5,0.4,2-0.2L42.4,14.6z
	 M24.3,47.1c2.8-0.7,5.6-1.1,8.6-1.1c2.9,0,5.8,0.4,8.6,1.1v-9.2c0-0.2-0.2-0.4-0.4-0.4H25.3c0,0,0,0,0,0c0,0,0,0,0,0h-0.7
	c-0.2,0-0.4,0.2-0.4,0.4V47.1z M52.3,67.6c-0.9-1.5-0.7-3.4,0.4-4.8c-0.3-0.4-0.7-0.8-1-1.2L38.8,74.6c0.3,0.4,0.5,0.8,0.7,1.3
	l17.6-4.7c-0.2-0.5-0.3-1-0.5-1.5C54.9,69.9,53.2,69.1,52.3,67.6z M42,55c-0.5-0.2-1-0.4-1.5-0.5l-4.7,17.6c0.4,0.2,0.9,0.4,1.3,0.7
	L50,60c-0.4-0.3-0.8-0.7-1.2-1c-1.3,1.1-3.2,1.3-4.8,0.4C42.5,58.5,41.7,56.8,42,55z M28.9,53.6c-0.5,0.1-1,0.2-1.5,0.3l4.7,17.6
	c0.2,0,0.5,0,0.7,0c0.2,0,0.5,0,0.7,0l4.7-17.6c-0.5-0.1-1-0.2-1.5-0.3c-0.6,1.6-2.2,2.7-3.9,2.7C31.1,56.3,29.5,55.3,28.9,53.6z
	 M15.7,60l12.9,12.9c0.4-0.3,0.8-0.5,1.3-0.7l-4.7-17.6c-0.5,0.2-1,0.3-1.5,0.5c0.3,1.7-0.5,3.4-2.1,4.3c-1.5,0.9-3.4,0.7-4.8-0.4
	C16.4,59.3,16,59.7,15.7,60z M8.5,71.1l17.6,4.7c0.2-0.4,0.4-0.9,0.7-1.3L14,61.7c-0.3,0.4-0.7,0.8-1,1.2c1.1,1.3,1.3,3.2,0.4,4.8
	c-0.9,1.5-2.6,2.3-4.3,2.1C8.9,70.1,8.7,70.6,8.5,71.1z M10.2,77.7h13.7l-16-4.3c-0.1,0.5-0.2,1-0.3,1.5
	C8.9,75.4,9.8,76.4,10.2,77.7z M37.7,77.7c-0.4-1.8-1.8-3.1-3.5-3.6c0,0,0,0,0,0c0,0,0,0,0,0c-0.4-0.1-0.8-0.2-1.3-0.2
	c-0.4,0-0.9,0.1-1.3,0.2c0,0,0,0,0,0c0,0,0,0,0,0c-1.7,0.5-3.1,1.9-3.5,3.6H37.7z M55.5,77.7c0.4-1.3,1.3-2.3,2.5-2.8
	c-0.1-0.5-0.2-1-0.3-1.5l-16,4.3H55.5z"/>
</svg>
