<?xml version="1.0" encoding="utf-8"?>
<!-- Generator: Adobe Illustrator 27.0.0, SVG Export Plug-In . SVG Version: 6.00 Build 0)  -->
<svg version="1.1" id="Logo" xmlns="http://www.w3.org/2000/svg" xmlns:xlink="http://www.w3.org/1999/xlink" x="0px" y="0px"
	 viewBox="0 0 304.3 90" style="enable-background:new 0 0 304.3 90;" xml:space="preserve">
<style type="text/css">
	.st0{fill:#FFFFFF;}
	.st1{fill:#D2D9B8;}
</style>
<path class="st0" d="M121.3,22c-0.2-0.6-0.9-1-1.5-1c-0.7,0-1.2,0.4-1.6,1l-10.7,23.2c-0.3,0.8-0.4,1.7,0.3,2.2
	c0.7,0.4,1.6,0.2,2.2-0.4c1.3-1.2,3-2.6,4.7-3.7c1.7-1,3.3-1.7,5.1-2c2.1-0.5,4.3-0.4,6.5,0.1l2.3,5.2c0.5,0.9,1.5,1.2,2.3,0.8
	c0.8-0.4,1.2-1.4,0.8-2.3L121.3,22z M119.3,38.3c-1.9,0.4-4.3,1.3-6,2.3l6.5-13.8l5.1,11.2C123,37.8,121.2,37.9,119.3,38.3z
	 M222,22.7v23.2c0,0.9-0.7,1.7-1.7,1.7c-0.9,0-1.7-0.7-1.7-1.7V22.7c0-0.9,0.8-1.7,1.7-1.7C221.2,21,222,21.8,222,22.7z M178.5,22
	c-0.2-0.6-0.9-1-1.5-1c-0.7,0-1.2,0.4-1.6,1l-10.7,23.2c-0.3,0.8-0.4,1.7,0.3,2.2c0.7,0.4,1.6,0.2,2.2-0.4c1.3-1.2,3-2.6,4.7-3.7
	c1.7-1,3.3-1.7,5.1-2c2.1-0.5,4.3-0.4,6.5,0.1l2.3,5.2c0.5,0.9,1.5,1.2,2.3,0.8c0.8-0.4,1.2-1.4,0.8-2.3L178.5,22z M176.5,38.3
	c-1.9,0.4-4.3,1.3-6,2.3l6.5-13.8l5.1,11.2C180.2,37.8,178.4,37.9,176.5,38.3z M161.3,22.6v23.2c0,0.9-0.7,1.7-1.7,1.7
	c-0.9,0-1.7-0.8-1.7-1.7v-17l-8.3,13.9c-0.3,0.4-0.8,0.7-1.3,0.7c-0.5,0-1-0.2-1.4-0.7l-8.3-13.9v17c0,0.9-0.7,1.7-1.7,1.7
	c-0.9,0-1.7-0.8-1.7-1.7V22.6c0-0.7,0.5-1.4,1.2-1.6c0.7-0.2,1.5,0,1.9,0.6l10,16.9l10-16.9c0.5-0.6,1.2-0.8,1.9-0.6
	C160.8,21.3,161.3,21.9,161.3,22.6z M215.1,22.7v5.5c-1.2,0.7-2.3,1.5-3.4,2.4v-7.9c0-0.9,0.7-1.7,1.7-1.7
	C214.3,21,215.1,21.7,215.1,22.7z M211.8,32.9c1-0.9,2.1-1.8,3.3-2.6v15.6c0,0.7-0.3,1.3-1,1.5c-0.7,0.2-1.5,0.1-2-0.4l-5.8-7
	c0.5-0.9,1-1.8,1.7-2.7c0.1-0.1,0.2-0.2,0.2-0.3l3.6,4.3V33C211.7,32.9,211.8,32.9,211.8,32.9z M206.5,36c-0.6,0.8-1.1,1.6-1.5,2.4
	l-9.2-11.1v18.5c0,0.9-0.7,1.7-1.7,1.7c-0.9,0-1.7-0.7-1.7-1.7V22.7c0-0.7,0.4-1.4,1.1-1.6c0.7-0.2,1.4,0,1.9,0.5l11.6,13.9
	C206.8,35.7,206.7,35.9,206.5,36z"/>
<path class="st1" d="M61.2,11.5c0.2,1.5,0.7,2.8,1.5,4.1c0.3,0.6,1.2,2.4,1.9,2.5c0.1,0,0.2,0,0.4-0.1c0,0,0,0,0.1-0.1
	c0.2-0.2,0.2-0.6,0.3-0.7c0-0.2,0-0.4-0.1-0.6c-0.4-1-0.9-1.9-1.4-2.9c-0.3-0.6-0.6-1.2-0.8-1.8c2.7,1.3,4.1,3.4,4.4,6.2
	c0.1,0.5-0.2,1.1-0.3,1.7c-0.4-0.1-0.6-0.2-0.8-0.3c-2.5-0.8-5-1-7.3,0.3c-1.7,1-3.1,2.4-4.6,3.6c1,0.2,1.9,0.4,2.9,0.6
	c2.2,0.5,4.1,0,5.7-1.9c0.1,0.4,0.2,0.7,0.2,1.1c0.3,1.6,1,3.1,2.3,4.2c1.3,1.1,2.5,2.2,3.3,3.8c0,0,0.1,0,0.4,0.1
	c-0.2-2.4-0.5-4.7-0.7-6.9c0.8,0.3,1.4,0.5,2.1,0.8C70.3,24,69.4,23,70,21.8c0.5-1,1.2-2,2.3-2.8c0.4,2-0.7,3.6-0.8,5.5
	c1.1-1,1.8-2.1,2.2-3.3c0,0,0,0,0,0c0,0,0,0,0,0c0-0.1,0-0.1,0-0.2c0,0,0-0.1,0-0.1c0-0.1,0-0.2,0-0.2c0,0,0,0,0,0
	c0-0.3,0.1-0.7,0-1c0-0.1,0-0.1,0-0.2c0-0.1,0-0.2,0-0.2c0-0.4,0-0.7-0.1-1c-0.1-0.3-0.2-0.5-0.4-0.7c-0.5-0.3-1.1,0-1.6,0.2
	c-0.2,0.1-0.4,0.2-0.6,0.3c-0.3,0.1-0.6,0.4-0.9,0.7c-0.3,0.2-0.5,0.4-0.6,0.5c-0.2-1.1-0.3-2.2-0.6-3.1c-1.1-3-3.2-5.2-6.1-6.4
	c-0.8-0.3-1.2-0.2-1.5,0.7c-0.1,0.4-0.1,0.8-0.1,1.2C61.2,11.4,61.2,11.5,61.2,11.5z M62.4,21.6c-1.3,0.9-2.7,1.4-4.6,1.1
	c1.3-1.3,2.6-2,4.3-2c0.2,0,0.4,0.2,0.5,0.3C62.6,21.2,62.5,21.5,62.4,21.6z M67.2,23c-0.3,1-0.7,2-1,2.9c-0.1,0-0.2,0-0.2,0.1
	c-0.5-1.5-1-3.1-1.5-4.7c1.5-0.3,2.2,0,2.7,1.1C67.2,22.6,67.2,22.9,67.2,23z M29.8,15.2c-1.2-1.5-1.6-3.4-1.6-5.3
	c0-0.7,0.3-0.8,0.9-0.5c1.3,0.7,2.5,1.4,3.8,2.1c-0.1-1.6-0.2-3.2,0.5-5c2.3,1.8,5.3,2.4,6.9,5.4c0.1-0.4,0.1-0.5,0.1-0.7
	c0.2-2.4,1.5-4.3,3.2-5.9c1-0.9,1.8-0.8,2.5,0.3c0.9,1.3,1.2,2.8,0.9,4.4c-0.3,1.9-1.2,3.6-2.5,5c-0.2,0.2-0.4,0.4-0.7,0.6
	c-0.1,0-0.2-0.1-0.2-0.1c0.2-0.6,0.3-1.3,0.5-1.9c0.4-1.2,0.9-2.3,1.2-3.5c0.3-1.2,0.1-2.3-0.8-3.5C44,7.4,43.4,8.1,43,8.9
	c-0.8,1.4-1.1,2.9-0.4,4.5c0.5,1.2,0.3,1.8-0.5,2.5c-0.3-0.6-0.6-1.2-0.9-1.8c0.1,1.5,0.2,3,0.3,4.4c-0.1,0-0.2,0.1-0.3,0.1
	c-0.1-0.4-0.3-0.7-0.4-1.1c-0.6-1.4-1.1-2.9-1.9-4.2c-0.9-1.7-2.4-2.9-4.2-3.9c0,1.9,0,3.8,1.4,5.1c1.2,1.2,2.7,2.2,4.4,3.4
	c-0.6,0-1.1,0.1-1.5,0c-2.1-0.3-3.8-1.4-5.2-3c-1-1.1-2.2-2.1-3.5-3.1c0.3,1.8,1,3.2,2.5,4.2c0.2,0.2,0.4,0.5,0.5,0.8
	c-0.4,0.1-0.8,0.4-1,0.3C31.3,16.5,30.4,16,29.8,15.2z M14.4,21.9c-0.3-0.8-0.4-1.7-0.3-2.6c0.1-1,0.6-1.2,1.5-0.9
	c0.6,0.3,1.3,0.7,1.9,1c1-1.1,1.1-1.1,1.5,0.4c0.3,1,0.6,1.7,0.6,2.3c0,0.1,0,0.3,0,0.6c0,0.3,0,0.4,0,0.5c0,0.1-0.1,0.2-0.1,0.3
	c0,0,0,0.1-0.1,0.1c-0.1,0-0.2-0.1-0.2-0.1c-0.9-1.4-1.9-2.7-3.7-3.2c0.6,1.4,1.3,2.7,1.9,4.1c0,0,0,0.1,0,0.2
	c0,0.1-0.1,0.1-0.2,0.1c-0.1,0-0.2,0-0.3,0c0,0-0.4-0.1-0.8-0.4C14.9,23.4,14.4,21.9,14.4,21.9z M5.7,40.3c-0.4-0.6-0.8-1.3-0.6-2.1
	c0.1-0.4,0.3-0.6,0.5-0.8c0.7-0.8,1.8-0.8,2.3-0.9c0.2,0,0.4,0,1.6,0.2c2.1,0.4,2.5,0.6,3.1,0.5c0.5-0.1,1.1-0.3,1.7-0.7
	c1.3-0.8,2.9-0.4,4.2,0.5c1.5,1,2.6,2.4,3.4,3.9c0.5,0.9,0.5,1.9,0.2,3.1c-0.2-0.4-0.3-0.6-0.4-0.8c-0.8-1.9-2-3.4-3.6-4.6
	c-1.3-1-2.6-1-4-0.1c0.7,1.4,1.8,2.4,3.2,3.1c1.3,0.7,2.7,1.2,4.1,1.9c-0.9,0.6-1.8,0.5-2.6,0.3c-2.2-0.6-3.9-2-5.3-3.7
	c-0.2-0.2-0.3-0.4-0.6-0.5c0.6,2.8,2.1,4.8,5.1,5.5c0,0,0.1,0,0.2,0c0,0,0,0.1-0.2,0.2c-0.3,0.2-1.5,1-3,0.7
	c-0.6-0.1-1.1-0.4-1.2-0.5c-0.9-0.6-1.2-1.6-1.6-2.3c-0.7-1.2-1.3-2.4-2.1-3.5c0,0-0.9-1.1-1.7-1.3c-0.5-0.1-0.9-0.1-0.9-0.1
	c-0.2,0-0.3,0-0.4,0c0,0-0.1,0-0.1,0.1c0,0.1,0,0.1,0,0.2c0.6,0.9,1.2,1.8,1.9,2.7c-0.5,0.6-1.1,0.5-1.6,0.2
	C6.8,41.4,6.2,41.1,5.7,40.3z M54.4,23.6C54.4,23.6,54.5,23.6,54.4,23.6C54.5,23.6,54.4,23.6,54.4,23.6
	C54.4,23.7,54.4,23.7,54.4,23.6C54.4,23.7,54.4,23.6,54.4,23.6z M83.1,34.2c1.3,0,1.8,0.6,1.2,1.8c-0.4,1-1.1,1.9-1.8,2.7
	c-0.4,0.5-1.1,0.8-1.9,0.5c0.7-1,1.3-2,2-3c-2-0.4-3.3,0.3-4,2c-0.9,2.2-2.2,3.9-4.6,4.5c-0.4,0.1-0.9,0.2-1.3,0.1
	c-0.4-0.1-0.8-0.4-1.2-0.7c3.3-1.2,5.7-3,6.1-6.8c-3.7,1.3-6.6,3.5-8.3,7.1c-0.2-3,0.9-5.2,3.4-6.8c1.7-1.1,3.5-1.7,5.5-2
	c0.7-0.1,1.4,0,1.6,0.7C81,34.2,82.1,34.2,83.1,34.2z M85.7,54.5c-0.2-0.5-0.4-1.1-0.6-1.6c-0.7-2.3-2-4.2-3.9-5.6
	c-3-2.2-6.2-3.7-10-3c-1.5,0.3-3,0.9-4.5,1.4c-1.1,0.3-2.1,0.6-3.2,1c1.2-1.6,2.4-3.1,3.3-4.7c0.9-1.5,1.7-3.2,2.4-4.8
	c1-2.2,2.3-3.9,4.5-5c0.6-0.3,1.2-0.7,1.8-1.1c0,1,0.7,1.1,1.4,0.8c1.3-0.5,2.6-1.1,3.9-1.6c-0.3,1.1-1.2,1.8-2.3,2.4
	c0.8,1,1.6,1.1,2.5,0.2c1-1,1.6-2.3,1.5-3.8C82.3,28,82,27.7,81,28.2c-0.8,0.4-1.6,0.9-2.4,1.3c-0.4,0.2-0.8,0.4-1.3,0.6
	c1.7-2.3,2-4.9,2-7.6c0-0.8-0.3-1.1-1.1-1.1c-3.7-0.1-7.4,3-8,6.6c-0.2,1,0.5,1.6,1.6,1.4c0.9-0.1,2-1,2.4-2.1c-0.3,0-0.6,0-0.9,0
	c-0.3,0-0.5,0-0.8,0c0-1.7,2.6-3.7,4.9-3.8c-0.1,2-0.6,3.8-1.9,5.3c-1,1.1-2.2,2-3.4,2.8c-1.8,1.1-3.6,2.2-4.8,4.3
	c-0.1-2.1-0.5-3.8-1.7-5.3c-1.3-1.6-3-2-5-1.5c-0.1-0.1-0.1-0.2-0.2-0.3c-1.3-3.9-5.9-5-8.8-2.1c-1.8,1.7-3.8,3.3-5,5.6
	c0,0.1-0.1,0.1-0.2,0.2c-3.5-5.2-0.5-15.3,5.2-17.4c0.6,2.7-1.1,6.3-3.4,7.5c-0.4,0.2-0.8,0.4-1.2,0.6c-0.2,0.2-0.4,0.4-0.6,0.7
	c0,0,0,0.1,0,0.1c0,0.1,0.1,0.1,0.2,0.1c0.3,0,0.7,0,1-0.1c2.2-0.7,4.5-1.2,6.6-2.1c4.2-1.9,5.1-6.9,4.5-10.3
	c-0.2-1.3-0.3-2.5-0.1-3.9C59,6.8,59,6.3,59,6c-0.1-0.4-0.4-0.5-1-0.3c-0.2,0-0.5,0.1-0.9,0.2c-2.5,0.7-4.9,1.5-6.7,3.4
	c-0.7,0.7-1.2,1.6-1.7,2.4c-0.3,0.6,0,1.1,0.7,1c0.6-0.1,1.2-0.5,1.7-0.9c1-0.8,2-1.9,3-2.6c0.8-0.6,1.9-1,2.8-1.4
	c0.1-0.1,0.2-0.1,0.3,0c0.1,0.1,0.1,0.2,0,0.3c-0.1,0.3-0.1,0.6-0.2,0.9c-0.5,1-1.2,1.8-2.1,2.3c-2.3,1.3-4.7,2.7-7,4
	c-2.3,1.4-3.6,3.5-4.2,6c-0.2,0.9-0.5,1.8-0.8,3c-0.5-0.6-0.8-1.1-1.2-1.6c-1-1.4-2.3-2.3-3.9-2.9c-1.7-0.7-3.4-1.3-5.1-2
	c-2.3-1-4.6-1.5-7,0.3c0.4-1.2,0.8-2.1,1.1-3.1c0.3-1.1,0.5-2.2,0.6-3.4c0-1.2-0.9-1.7-2-1c-3.1,1.9-4.7,4.8-4.7,8.4
	c0,0.4,0.1,0.8,0.1,1.1c0.2,1.1,0.5,1.3,1.7,1.2c1.3-0.1,2.4-0.7,3.4-1.5c0.6-0.4,1.2-1,1.9-1.1c0.9-0.2,2-0.2,2.8,0.1
	c2.3,0.8,4.5,1.8,6.6,2.9c1.8,0.9,3.3,2.1,4.4,3.9c0.1,0.1,0.2,0.3,0.2,0.4c0,0,0,0.1,0,0.3c-0.7-0.6-1.3-1.2-2-1.7
	c-2.9-2.3-6.3-3.5-9.8-4.1c-0.4-0.1-0.9,0.2-1.3,0.3c0.2,0.5,0.3,1.1,0.6,1.4c0.4,0.4,1.1,0.5,1.6,0.7c0.7,0.2,1.5,0.3,2.2,0.4
	c0,0,0.1,0.1,0.1,0.1c-1.3,1.2-4.2,1.3-5.6,0.4c-0.8-0.5-1.7-1-2.7-1.2c-2.4-0.4-4.5,0.9-5.2,3.3c-0.4,1.2-0.4,2.4-0.5,3.6
	c0,0.3,0,0.5,0,1c-0.2-0.4-0.3-0.6-0.4-0.8c-1-3.5-3.6-5-6.9-5.8c-0.6-0.1-1.1-0.1-1.7-0.2c-0.6-0.1-0.7,0.2-0.7,0.7
	c0,2.5,0.7,4.9,1.8,7.1c0.1,0.3,0.3,0.6,0.5,1.2c-0.7-0.4-1.2-0.7-1.7-1c-0.8-0.4-1.6-0.8-2.4-1.1c-0.6-0.2-1,0-1.1,0.7
	C6.3,33.2,7,34.7,8.4,36c0.5,0.4,0.9,0.4,1.3,0c0.5-0.5,0.2-0.8-0.2-1.2c-0.6-0.6-1-1.3-1.5-2c0-0.1,0-0.2,0.1-0.2
	c0.1,0,0.1,0,0.1,0c0.3,0.2,0.5,0.4,0.8,0.5c0.8,0.4,1.6,0.8,2.4,1.1c0.3,0.1,0.8,0.2,1,0c0.8-0.5,1.4-0.1,2.1,0
	c0.9,0.1,1.8,0.1,2.7-0.6c-1.7-0.8-3.4-1.5-4.4-3c-1-1.5-1.5-3.2-1.8-5c2.3-0.1,5.2,2.1,5.9,4.4h-1.8c0.1,0.8,0.9,1.5,2.1,1.7
	c1,0.2,1.4-0.1,1.9-1c1.1,4.8,3.4,9,6.3,12.9c2.3,3.1,5.5,4,9.3,3.4c0,0,0-0.1-0.1-0.1c-0.1-0.1-0.2-0.2-0.2-0.2
	c-0.3-0.2-5.5-3.9-6.8-5.6c-1.2-1.5-2.5-3-3.7-4.5c-1.5-1.8-2.7-3.8-3.2-6.2c-0.3-1.4-0.1-2.8,0.6-4.2c0.2-0.3,0.4-0.6,0.6-0.9
	c0.7-0.7,1.5-1.2,2.5-0.9c1,0.3,1.3,1.1,1.5,2c0.3,1.7,0.2,3.3-0.3,5c-0.3,1-0.7,2-1.1,3.1c1-0.3,1.5-1.1,2.1-1.9
	c0.1,1.1,0.1,2.2,0.3,3.2c0.3,1.9,1.1,3.5,2.5,4.9c1.6,1.5,3.5,1.8,5.5,1.5c0.1,0,0.3-0.1,0.4-0.1c0.1,0,0.1-0.1,0.3-0.2
	c-0.6-0.2-1-0.4-1.5-0.5c-2.8-0.9-4.9-2.6-5.7-5.5c-0.1-0.4-0.2-0.9-0.3-1.5c0.5,0,0.9,0,1.3,0.1c2.1,0.5,3.7,1.8,5,3.5
	c2,2.5,3.1,5.5,4.2,8.4c0.3,0.8,0.6,1.7,1,2.5c0.1,0.2,0.2,0.5,0.5,0.6c0.4-4.8-0.8-9.2-3.4-13.2c0.9,0.1,1.8,0.1,2.8,0.2
	c0.2,0,0.5,0,0.6-0.1c0.3-0.1,0.5-0.3,0.8-0.5c-0.2-0.2-0.4-0.4-0.7-0.5c-1.4-0.6-2.9-1-4.2-1.7c-1.5-0.8-2.5-2.1-3.1-3.8
	c4.3,0.6,7.2,3,9.6,6.5c0,0,0.1-0.1,0.1-0.1c0,0,0-0.1,0-0.2c-0.7-4.3-5.1-6.7-5.1-6.7c-2-1.1-4.4-1.5-6.7-1.1
	c-0.2,0-0.4,0.1-0.6,0.2c-0.6,0.2-0.7,0.5-0.3,1c0.9,1.2,1.7,2.4,2.5,3.6c0,0,0.1,0.1,0,0.1c0,0.1-0.1,0.1-0.2,0
	c-1.8-0.3-3.5-0.6-5.4-0.9c1.1-1.7,2-3.5,1.8-5.7c0.2-0.1,0.4-0.1,0.6-0.1c2.6-0.2,4.9-1,7-2.5c0.4-0.3,0.7-0.2,0.9,0.1
	c2,1.8,3.5,4,4.4,6.6c0.6,1.8,1.3,3.6,2,5.3c0.8,2.1,1,4.4,1,6.6c-0.1,4.3-1.4,8.3-3.4,12c-1-0.9-2-1.9-3.1-2.8
	c-2.1-1.8-4.6-2.8-7.3-3.2c-3.8-0.6-7.7-1.3-11.6-1.6c-4.5-0.3-8.2,1.7-11.4,4.7c-1.3,1.2-1.8,2.9-2.2,4.6c-0.1,0.5-0.2,0.9-0.3,1.4
	c-0.4,0.9,0,1.3,0.7,1.8c2.5,1.6,5,1.9,7.5,0.1c0.9-0.7,1.7-1.6,2.3-2.5c2.7-4.1,6.6-5.4,11.2-5.4c0.5,0,1,0.2,1.4,0.5
	c2.5,1.2,4.8,2.8,6.9,4.8c3,2.9,4,6.6,3.9,10.6c-0.1,5.2-2.4,9.3-7.2,11.7c-1.8,0.9-3.8,1.5-5.7,2.1c-0.2,0.1-1,0.1-1.3,0.7
	c-0.2,0.3,0,1.9,0.1,2.2c1.5,0.8,1.9,1,3.5,1.6c2.1-0.9,5.1-2.7,7.3-3.5c5-1.8,7.3-5.5,8-10.5c0.2-1.8,0.4-3.6,0.5-5.4
	c0.2-2.3-0.7-4.3-2.4-5.9c-1.5-1.3-3-2.5-4.6-3.7c-2.1-1.6-4.2-3-6.3-4.5c-0.1,0-0.1-0.1,0-0.2c0,0,0.1-0.1,0.2,0
	c0.2,0.1,0.5,0.2,0.9,0.3c0.1,0,0.2,0.1,0.4,0.2c4.8,2.9,8.1,5.5,8.1,5.5c1.2,0.8,2.2,1.9,3.2,3c0.7,0.8,1.1,1.8,1.5,2.6
	c0.4-0.7,0.7-1.7,1.3-2.6c1.7-2.6,3.8-4.7,6.3-6.5c2.4-1.8,6.4-4.7,12.2-5.6c0.4-0.1,0.7-0.1,1-0.1c0.1,0,0.2,0,0.2,0.1
	c0,0,0,0.1-0.2,0.2c-0.2,0.1-0.5,0.2-0.9,0.4c-6.1,2.7-9.2,4-11.7,5.9c-2.7,2.2-5,4.8-6.4,8c-0.8,1.7-1.1,3.4-0.6,5.3
	c0.8,3.2,1.6,6.5,2.4,9.7c0.9,3.1,2.6,5.7,5,7.8c0.2,0.2,1.4,1.3,1.7,1.4c1.4-0.3,3.5-1.1,4.8-1.6c-3.1-1.1-7.8-3.4-9.5-6.6
	c-4.1-7.7-3.4-18.6,6.1-24.4c1.9-1.1,3.9-2,5.9-3c0.3-0.1,0.6-0.2,1-0.3c-0.1,0.8-0.3,1.4-0.4,2.1c-0.6,3.9,2.2,7.9,6.1,8.8
	c3.3,0.7,6.7-1.8,6.9-5.1c0-0.5-0.1-0.8-0.7-0.7c-0.9,0.1-1.8,0.1-2.7,0.2c-2.8,0.1-4.8-1.2-6-3.7c-0.1-0.2-0.2-0.3-0.3-0.5
	c-0.7,1.5,0.3,3.7,2,5c1.7,1.2,3.7,0.8,5.7,0.9c-0.5,1-1.3,1.6-2.3,2c-2,0.6-4.1-0.1-5.3-1.7c-1.6-2.1-2-4.6-2.6-7.4
	c1.8,0,3.5-0.1,5.2,0c0.8,0,1.5,0.1,2.3,0.3c1.6,0.4,2.8,1.4,3.7,2.8c1.2,1.7,2.6,2.9,4.6,3.5c1.9,0.5,3.5-0.2,4.9-1.3
	c0.2-0.1,0.3-0.3,0.5-0.4c0.2-0.1,0.2-0.6,0.1-0.9C85.8,54.8,85.8,54.7,85.7,54.5z M53.5,14.3c0-0.2,0.2-0.5,0.4-0.6
	c1-0.6,2.1-1.2,3.1-1.9c0.7,4-1.2,7.6-4.9,9.3C53.4,19,53.5,16.7,53.5,14.3z M24.7,18.3c0,0.1-0.1,0.3-0.2,0.4
	c-0.6,0.4-1.2,0.8-1.9,1.2c-0.5-2.9,0.9-6.2,3.4-7.7c-0.2,0.9-0.4,1.6-0.6,2.3C25,15.7,24.4,16.9,24.7,18.3z M21.1,50.4
	c-2.8,0.7-5,2.2-6.4,4.8c-0.9,1.7-2.3,2.7-4.1,3.2c-1,0.3-2,0.2-3.1-0.5c0.7-0.3,1.3-0.6,1.9-0.8c0.9-0.4,1.9-0.8,2.8-1.3
	c0.7-0.4,1.3-1,1.3-2c-2.1,0.8-4,1.6-5.9,2.3c0,0-0.1,0.1-0.1,0c-0.1,0-0.1-0.1-0.1-0.3c0.3-1,0.7-2.4,1.8-3.4
	c2.5-2.1,5.3-3.7,8.6-4.2c1.3-0.2,2.5,0,3.5,0.8c0.3,0.2,0.5,0.6,0.9,1C21.9,50.1,21.5,50.3,21.1,50.4z M48,34.6
	c0.6-1.1,1.2-2.1,2-3c0.4-0.5,0.9-0.9,1.5-1.3c0.7-0.5,1.3-0.9,1.7-1.8c0.1-0.1,0.1-0.3,0.3-0.4c1.1-1,2.4-0.9,3.7-0.8
	c1.1,0.1,1.9,1,2.5,2.1c-0.5,0-0.8,0.1-1.3,0.1c0.1,0.5,0.2,0.9,0.4,1.3c0.4,0.8,0.8,1.6,1.2,2.3c0.3,0.5,0.2,0.8-0.2,1.1
	c-0.7,0.5-1.4,1-2.2,1.5c-1.6,1-2.3,2.4-2.4,4.2c-0.1,1-0.1,2-0.1,3c-0.1,0.7-0.5,1.3-1.2,1.5c-2.1,0.6-4,1.4-5.3,3.4
	c-0.1,0.1-0.1,0.2-0.1,0.1c0,0-0.1-0.1-0.1-0.4c0-0.3,0-0.8,0.1-1.4c0.2-4.1,0.2-6.1,0.1-7c-0.1-1-0.3-2-0.6-3
	C47.7,35.6,47.8,35,48,34.6z M57.3,47.5c-4.6,2.4-7.6,4.4-11.1,8.7c-0.4,0.5-0.7,0.8-0.9,1.1c-0.2,0.3-0.3,0.5-0.4,0.4
	c-0.1,0,0-0.4,0-0.5c0-0.2,0.1-0.5,0.2-0.7c0,0,0.1-0.2,0.2-0.4c3.1-5.8,5.1-7.2,5.1-7.2c1.2-1.1,2.6-2,4.2-2.2
	c1.2-0.1,2-0.8,2.3-1.8c0.3-1.1,0.6-2.3,0.6-3.5c0.1-1.8,0.7-3.4,1.9-4.8c0.5-0.6,1-1.2,1.5-1.8c0.6,0.5,1.8,1.3,3.5,1.4
	c0.4,0,0.7,0,1,0c0.3,0,0.7-0.2,0.8-0.4c0.1-0.3-0.2-0.6-0.6-0.8c0,0-0.3-0.1-0.8-0.2c-0.5-0.1-1.1-0.4-1.7-0.7
	c-0.6-0.3-1.1-0.5-1.5-1c-0.6-0.6-0.9-1.4-1-2.4c0.7-0.5,1.4-0.4,2-0.2c0.6,0.2,1.2,0.5,1.7,0.8c2.2,1.7,2.8,5.2,1.7,7.7
	C64.1,43,61.1,45.6,57.3,47.5z M83.8,53.7c-0.1,0-0.2,0-0.2,0c-1.9-0.7-3.8-1.4-5.8-2.1c-0.3,0.7,0.1,1.1,0.5,1.3
	c1.9,1,3.5,1.6,3.5,1.6c0.5,0.2,1.2,0.4,2,0.6c-0.3,0.2-0.9,0.6-1.7,0.7c-0.8,0.1-1.4,0-1.7-0.1c-1.6-0.4-2.7-1.4-3.4-2.9
	c-1.3-2.4-3.1-4.1-5.8-4.7c-1.3-0.3-2.6-0.2-3.9-0.2c0.6-0.8,1.7-1.4,2.8-1.7c2-0.6,4-0.4,6,0.3c2.5,0.9,4.7,2.2,6.4,4.4
	c0.5,0.7,0.9,1.6,1.3,2.4C83.9,53.5,83.8,53.6,83.8,53.7z M71,77.2c-0.5,0.5-0.9,0.9-1.4,1.3c-2.8,1.9-6.6,1.8-9.4-0.4
	c-0.7-0.5-1.2-0.6-1.9-0.1c-1.4,0.9-2.9,1.3-4.6,0.9c-1.5-0.4-2.8-1.6-3.2-3.1c-0.1-0.2-0.1-0.4-0.1-0.6c0-0.3,0-0.5,0-0.7
	c0,0,0,0,0,0c0,0,0-0.1,0-0.1c0,0,0,0,0-0.1c0,0,0,0,0,0c0-0.2,0.1-0.2,0.1-0.2c0,0,0.1,0.1,0.2,0.2c0.2,0.3,0.3,0.6,0.5,0.9
	c0.7,1.5,1.8,1.9,3.3,1.3c0.7-0.3,1.3-0.6,2-1c1.6-0.9,3.1-0.8,4.6,0c0.7,0.4,1.4,0.8,2,1.3c2.1,1.6,4.4,1.7,6.8,0.6
	c0.2-0.1,0.3-0.2,0.6-0.3C70.7,77.1,70.8,77,71,77.2C71,77.1,71,77.2,71,77.2z M42.4,49c-1-2.8-2-5.6-3-8.5
	C43,42.2,44.3,45.9,42.4,49z M51.2,35.8c0.6-0.1,1-0.2,1.5-0.3c1.7-0.6,2.6-1.9,3.1-3.6c0.2-1,0.3-1.9,0.5-2.9
	c0.1-0.4,0.3-0.8,0.6-1.2c0.3,1.3,0.7,2.6,0.9,3.9c0.4,2.5-1.6,5.1-4,5.3C52.7,37,51.8,36.6,51.2,35.8z M5.4,48.8
	c-0.4-0.1-0.9-0.3-1.3-0.5c-0.9-0.5-1-0.7-0.4-1.6c1.4-2,5-3.3,7.4-2.8c0.9,0.2,1.3,0.5,1.8,1.2c-1.7-0.4-3.3-0.1-4.7,0.8
	C7.5,46.3,7,46.7,6.4,47c0,0-0.1,0.1,0,0.1c0,0,0.1,0.1,0.1,0c1.7-0.4,3.3-0.7,5-1.1c0.1,0,0.1,0,0.2,0.1c0,0.1,0,0.2-0.1,0.2
	C11.4,46.8,7.8,49.4,5.4,48.8z M86.7,44.1c-0.1,0.2-0.2,0.3-0.4,0.5c-1.8,1.7-6.1,1.6-7.9-0.1c-0.1-0.1-0.1-0.2-0.3-0.6h5.2
	c0-0.1,0-0.3,0.1-0.4c-0.7-0.2-1.4-0.5-2.2-0.7c-0.3-0.1-0.6,0-0.9-0.2c-0.2-0.1-0.6-0.4-0.6-0.6c0-0.2,0.3-0.6,0.5-0.7
	c0.2-0.1,0.5-0.2,0.8-0.1c1.9,0.3,3.7,0.8,5.2,2.1c0.2,0.2,0.3,0.3,0.4,0.5C86.7,43.9,86.7,44,86.7,44.1z M15.7,61.1
	c-0.4-0.4-0.7-1-1-1.5c-0.3-0.6,0.1-1.2,0.7-1.1c1.9,0.1,3.6-0.6,5.4-1.1c1.7-0.5,2.8-1.5,3.4-3.2c0.1-0.2,0.2-0.5,0.4-0.7
	c0.3,0.9,0.3,1.8-0.1,2.6c-0.6,1.6-1.8,2.5-3.4,2.9c-1,0.3-2,0.4-3,0.7c-0.3,0.1-0.6,0.1-0.9,0.2c0.6,0.8,1.3,1,2.1,1.1
	c4,0.4,6.6-1.9,6.7-6c0-0.9,0-1.9,0-3.1c0.4,0.4,0.6,0.7,0.8,0.9c2.1,3.2,1,7.3-2.3,9.2C21.6,63.9,18,63.5,15.7,61.1z M53.7,87.6
	c-2.1,0.4-5.1,0.8-7.2,0.9c0-0.2-0.1-1.6-0.1-1.8c0-0.3-0.1-0.6-0.1-0.9c-0.1-0.9-0.4-1.2-1.3-0.9c-3.5,1-6.9,2.6-7.7,2.9
	c-2.4-0.3-4.2-0.9-6.4-1.7c0.6,0,1.3-0.5,2.8-1.4c1.8-1,3.7-1.9,5.5-2.8c0.7-0.3,1.3-0.7,1.9-1.2c2.7-2.3,3.9-5.3,4.4-8.8
	c0-0.4,0.1-0.7,0.1-0.7c0.1-0.4,0.1-0.8,0.1-1.1c0.1,0.2,0.2,0.4,0.3,0.7c0,0,0.1,0.1,0.1,0.2c0.4,1.7,0.9,3.5,1.2,5.2
	c0.8,3.7,2.3,7,5,9.8C52.3,86.3,53.5,87.4,53.7,87.6z M25,76c-1.1,0.8-2.3,1.3-3.6,1.4c-0.2,0-0.9,0.1-1.8-0.3
	c-1.5-0.5-2.3-1.7-2.6-2.1c-0.1-0.2-0.2-0.3-0.1-0.3c0,0,0.1,0,0.2,0.1c0.3,0.2,0.7,0.4,1.2,0.6c0.7,0.3,1.4,0.6,2.2,0.5
	c0.7,0,1.3-0.2,2-0.6c0.6-0.4,1.2-0.7,1.7-1.1c1.4-0.8,2.9-0.9,4.3-0.1c0.2,0.1,0.5,0.3,0.7,0.4c1.9,1.1,3.9,1.7,6,0.4
	c0.2-0.1,0.3-0.2,0.4-0.2c0,0,0,0.2-0.3,0.5c-0.3,0.3-0.8,0.8-1.4,1.2c-0.3,0.2-1.5,0.7-3,0.7c-1.2,0-2.4-0.4-3.6-1.1
	C26.4,75.4,25.8,75.4,25,76z M45,1.6c5.9,0,11.5,1.1,16.9,3.4c5.2,2.2,9.8,5.3,13.8,9.3s7.1,8.6,9.3,13.8c2.3,5.3,3.4,11,3.4,16.9
	s-1.1,11.5-3.4,16.9c-2.2,5.2-5.3,9.8-9.3,13.8s-8.6,7.1-13.8,9.3c-5.3,2.3-11,3.4-16.9,3.4s-11.5-1.1-16.9-3.4
	c-5.2-2.2-9.8-5.3-13.8-9.3c-4-4-7.1-8.6-9.3-13.8c-2.3-5.3-3.4-11-3.4-16.9s1.1-11.5,3.4-16.9c2.2-5.2,5.3-9.8,9.3-13.8
	c4-4,8.6-7.1,13.8-9.3C33.5,2.8,39.1,1.6,45,1.6 M45,0C20.1,0,0,20.1,0,45s20.1,45,45,45s45-20.1,45-45S69.9,0,45,0L45,0z
	 M304.2,48.9c-0.1-0.1-0.1-0.2-0.2-0.3c-0.4-0.5-0.8-0.8-1.4-1c-0.5-0.2-1.1-0.3-1.7-0.3c0.5-1.5,1-2.8,1.3-4.1
	c0.4-1.3,0.6-2.3,0.8-3.2c0-0.2-0.1-0.5-0.4-0.7c-0.2-0.2-0.5-0.3-0.7-0.3c-0.2,0-0.3,0.1-0.4,0.3c-0.1,0.2-0.2,0.4-0.4,0.7
	c-0.2-0.3-0.5-0.5-0.9-0.7c-0.3-0.2-0.7-0.3-1.1-0.3c-0.6,0-1.2,0.2-1.8,0.6c-0.6,0.4-1.1,1-1.6,1.6c-0.1,0.2-0.3,0.4-0.4,0.6
	c-0.2,0.2-0.5,0.5-0.8,0.8c-0.5,0.5-1.1,1-1.7,1.5c-0.6,0.5-1.2,0.9-1.8,1.3c-0.6,0.4-1.1,0.5-1.6,0.5c-0.1,0-0.2,0-0.2-0.1
	c0-0.1-0.1-0.2-0.1-0.4c0-0.4,0.1-0.9,0.2-1.3c0.1-0.4,0.2-0.8,0.4-1.3c0.2-0.4,0.3-0.8,0.5-1.2c0.2-0.4,0.3-0.8,0.5-1.2
	c0,0,0-0.1,0-0.2c0-0.2-0.1-0.5-0.4-0.7c-0.2-0.2-0.5-0.3-0.7-0.3c-0.2,0-0.5,0.1-1,0.4c-0.5,0.3-0.9,0.7-1.4,1.1
	c-0.5,0.4-1,0.8-1.4,1.3c-0.5,0.4-0.8,0.8-1,1c0.2-0.5,0.4-1,0.5-1.4c0.2-0.5,0.2-0.8,0.2-1.1c0-0.3-0.1-0.5-0.3-0.7
	c-0.2-0.2-0.4-0.3-0.7-0.3c-0.4,0-0.6,0.2-0.6,0.5c0,0.1-0.1,0.4-0.2,0.8c-0.1,0.3-0.2,0.6-0.3,0.9c-0.3,0.3-0.6,0.6-0.9,1
	c-0.6,0.6-1.2,1.1-1.9,1.7c-0.7,0.5-1.3,1-2,1.4c-0.7,0.4-1.3,0.6-1.8,0.6c-0.1,0-0.1-0.1-0.1-0.2c0-0.4,0.1-0.8,0.2-1.2
	c0.1-0.4,0.2-0.9,0.4-1.3c0.2-0.4,0.3-0.9,0.5-1.3c0.2-0.4,0.3-0.8,0.5-1.2c0-0.1,0.1-0.2,0.1-0.3c0-0.1,0.1-0.3,0.1-0.4
	c0-0.2-0.1-0.5-0.4-0.7c-0.2-0.2-0.5-0.3-0.7-0.3c-0.2,0-0.4,0.1-0.4,0.3c-0.1,0.2-0.1,0.3-0.2,0.5c0,0.2-0.1,0.4-0.2,0.5
	c-0.1,0.4-0.3,0.7-0.4,1c-0.3,0.3-0.6,0.5-0.9,0.9c-0.6,0.5-1.2,1.1-1.8,1.6c-0.6,0.5-1.2,0.9-1.8,1.3c-0.6,0.3-1.1,0.5-1.5,0.5
	c-0.3,0-0.4-0.2-0.3-0.5c0-0.3,0.2-0.8,0.3-1.2c0.2-0.5,0.3-1,0.5-1.5c0.2-0.5,0.3-0.9,0.3-1.3c0-0.4-0.1-0.7-0.4-1
	c-0.2-0.3-0.6-0.4-1-0.4c-0.3,0-0.7,0.1-1,0.3c-0.4,0.2-0.8,0.5-1.2,0.9c-0.4,0.4-0.8,0.8-1.2,1.2c-0.4,0.5-0.8,0.9-1.2,1.4
	c0.6-1.6,1.1-3.2,1.7-4.7c0.6-1.5,1.2-3.1,1.8-4.7c0.1-0.3,0.3-0.7,0.5-1.3c0.2-0.6,0.4-1.2,0.7-1.9c0.2-0.7,0.4-1.3,0.6-1.9
	c0.2-0.6,0.3-1,0.3-1.2c0-0.2-0.1-0.5-0.4-0.7c-0.2-0.2-0.5-0.3-0.7-0.3c-0.2,0-0.4,0.1-0.4,0.3c-0.3,0.8-0.5,1.6-0.8,2.3
	c-0.3,0.7-0.5,1.4-0.8,2c-0.3,0.7-0.5,1.3-0.8,2s-0.6,1.5-0.9,2.3c0,0.1-0.1,0.2-0.1,0.3c0,0.1,0,0.2,0.1,0.2c0,0.1,0.1,0.1,0.2,0.2
	c-0.1,0.3-0.3,0.7-0.5,1.4c-0.3,0.7-0.5,1.4-0.8,2.3c-0.1,0.3-0.3,0.7-0.4,1.1c-0.5,0.5-1.1,1-1.7,1.5c-0.7,0.6-1.4,1.2-2.1,1.7
	c-0.7,0.5-1.5,0.9-2.3,1.3c-0.8,0.3-1.6,0.5-2.3,0.5c-0.3,0-0.6-0.1-0.6-0.2c-0.1-0.1-0.1-0.3-0.1-0.7c0-0.5,0.1-1,0.4-1.6
	c0.3-0.6,0.6-1.1,1-1.6c0.4-0.5,0.9-0.9,1.4-1.2c0.5-0.3,1.1-0.5,1.6-0.5c0.1,0,0.2,0,0.2,0.1c0,0.2,0,0.3-0.1,0.5
	c-0.1,0.1-0.1,0.3-0.1,0.5c0,0.2,0.1,0.3,0.2,0.5c0.2,0.1,0.3,0.2,0.5,0.2c0.1,0,0.2-0.1,0.3-0.2c0.1-0.1,0.1-0.2,0.2-0.4
	c0-0.1,0.1-0.3,0.1-0.5c0-0.2,0-0.3,0-0.4c0-0.2-0.1-0.5-0.2-0.6c-0.1-0.2-0.3-0.4-0.5-0.5s-0.4-0.2-0.6-0.3s-0.4-0.1-0.7-0.1
	c-0.7,0-1.3,0.2-2,0.5c-0.6,0.3-1.2,0.7-1.7,1.2c-0.1,0.1-0.3,0.3-0.4,0.4c-0.3,0.3-0.7,0.6-1,1c-0.6,0.6-1.2,1.1-1.8,1.6
	c-0.6,0.5-1.2,0.9-1.8,1.2c-0.6,0.3-1.1,0.5-1.5,0.5c-0.1,0-0.2-0.1-0.2-0.2c0-0.5,0.1-1,0.2-1.5c0.1-0.5,0.3-0.9,0.5-1.4
	c0-0.1,0-0.3,0-0.4c-0.1-0.1-0.1-0.2-0.2-0.4c-0.1-0.1-0.2-0.2-0.4-0.3c-0.1-0.1-0.3-0.1-0.4-0.1c-0.2,0-0.3,0-0.3,0.1
	c-0.2,0.3-0.5,0.7-1,1.2c-0.4,0.5-0.9,1-1.3,1.4c-0.5,0.5-0.9,0.9-1.3,1.2c-0.4,0.3-0.7,0.5-0.9,0.5c0-0.6,0.1-1.3,0.4-1.9
	c0.2-0.7,0.6-1.3,1-1.8c0.4-0.5,0.9-1,1.4-1.3c0.5-0.3,1-0.5,1.6-0.5c0.4,0,0.7,0.1,0.9,0.2c0.2,0.1,0.4,0.2,0.5,0.4
	c0.1,0.1,0.2,0.3,0.3,0.4c0.1,0.1,0.2,0.2,0.5,0.2c0.3,0,0.4-0.1,0.4-0.4s-0.1-0.5-0.3-0.7c-0.2-0.2-0.4-0.4-0.7-0.6
	c-0.3-0.2-0.6-0.3-1-0.5c-0.4-0.1-0.8-0.2-1.3-0.2c-0.7,0-1.3,0.2-1.9,0.6c-0.6,0.4-1.1,0.8-1.5,1.3c-0.5,0.4-1,0.8-1.4,1.1
	c-0.6,0.4-1.2,0.7-1.9,0.8c0-0.2,0.1-0.3,0.1-0.5c0-0.2,0-0.4,0-0.5c0-0.4-0.1-0.8-0.2-1.2c-0.1-0.4-0.3-0.7-0.6-1
	c-0.3-0.3-0.6-0.5-0.9-0.7c-0.4-0.2-0.8-0.3-1.2-0.3c-0.5,0-1,0.2-1.4,0.5c-0.4,0.3-0.6,0.8-0.6,1.3c0,0.1,0,0.2,0,0.3
	c0,0.1,0,0.2,0,0.3c-1,0.9-2.1,1.8-3.4,2.7c-1.3,1-2.8,2-4.2,2.9c-1.5,0.9-3,1.8-4.6,2.6c-1.6,0.8-3.2,1.5-4.7,2.1
	c-1.6,0.6-3.1,1.1-4.6,1.4c-1.5,0.3-2.9,0.5-4.1,0.5c-2.2,0-3.7-0.5-4.7-1.6c-1-1.1-1.5-2.7-1.5-4.8c0-1.7,0.3-3.4,1-5.1
	c0.7-1.7,1.5-3.3,2.7-4.9c1.1-1.6,2.4-3,3.9-4.4c1.5-1.4,3.1-2.5,4.8-3.5c0.7-0.4,1.4-0.8,2-1.1v-1.8c-1.1,0.4-2.1,1-3.1,1.6
	c-1.7,1-3.4,2.2-4.9,3.6c-1.5,1.4-2.9,2.9-4,4.5c-1.2,1.6-2.1,3.3-2.8,5.1c-0.7,1.8-1,3.5-1,5.3c0,2.8,0.7,5,2.2,6.4
	c1.4,1.4,3.6,2.2,6.4,2.2c1.3,0,2.7-0.2,4.2-0.5c1.5-0.4,3-0.9,4.6-1.5c1.6-0.6,3.2-1.4,4.8-2.3c1.6-0.9,3.1-1.8,4.6-2.8
	c1.5-1,2.9-2,4.1-3c0.3-0.3,0.7-0.6,1-0.8c-0.1,0.3-0.1,0.7-0.1,1c0,0.3,0.1,0.6,0.2,0.9c0.1,0.3,0.3,0.6,0.5,0.8
	c0.2,0.2,0.4,0.4,0.7,0.6c0.3,0.1,0.6,0.2,0.9,0.2c0.4,0,0.8-0.1,1.2-0.3c0.4-0.2,0.7-0.4,1-0.7c0.3-0.3,0.6-0.6,0.9-1
	c0.3-0.4,0.5-0.8,0.6-1.2c0.8-0.1,1.6-0.4,2.3-0.8c-0.2,0.6-0.3,1.2-0.3,1.7c0,0.6,0.2,1.1,0.5,1.6c0.3,0.5,0.8,0.7,1.4,0.7
	c0.3,0,0.6-0.1,0.9-0.3c0.3-0.2,0.6-0.4,0.9-0.6s0.5-0.5,0.8-0.8c0.2-0.3,0.5-0.5,0.6-0.7c0.1,0.5,0.3,1,0.6,1.4
	c0.3,0.4,0.8,0.5,1.3,0.5c0.5,0,1.1-0.2,1.8-0.6c0.7-0.4,1.3-0.9,2-1.5c0.2-0.2,0.4-0.4,0.6-0.6c0,0.1,0,0.2,0,0.3
	c0,0.9,0.3,1.5,0.8,2c0.5,0.5,1.2,0.7,2.1,0.7c0.8,0,1.6-0.2,2.4-0.6c0.8-0.4,1.6-0.9,2.4-1.4c0.8-0.6,1.5-1.2,2.2-1.9
	c-0.2,0.6-0.5,1.2-0.7,1.8c-0.3,0.8-0.5,1.5-0.7,2.1c-0.2,0.6-0.3,0.9-0.3,1c0,0.2,0.1,0.4,0.3,0.6c0.2,0.2,0.5,0.3,0.7,0.3
	c0.1,0,0.3-0.1,0.4-0.2c0.2-0.3,0.4-0.5,0.6-0.8c0.2-0.3,0.4-0.6,0.6-0.8c0.3-0.5,0.7-1,1.1-1.5c0.4-0.5,0.8-1.1,1.2-1.6
	c0.4-0.5,0.9-1,1.3-1.5c0.4-0.5,0.9-0.9,1.3-1.2c-0.2,0.5-0.3,1.1-0.6,1.7c-0.2,0.6-0.3,1.1-0.3,1.6c0,0.6,0.2,1.1,0.6,1.5
	c0.4,0.4,0.8,0.6,1.4,0.6c0.5,0,1.2-0.2,1.8-0.6c0.7-0.4,1.4-0.9,2-1.5c0.3-0.3,0.7-0.6,1-0.9c-0.1,0.4-0.2,0.8-0.2,1.2
	c0,0.6,0.2,1.1,0.6,1.5s0.9,0.6,1.5,0.6c0.7,0,1.3-0.2,2-0.6c0.7-0.4,1.4-0.9,2-1.5c0.3-0.3,0.6-0.5,0.8-0.8
	c-0.1,0.1-0.1,0.3-0.2,0.5c-0.1,0.3-0.2,0.6-0.2,0.8c0,0.2,0.1,0.5,0.4,0.7c0.2,0.2,0.5,0.3,0.7,0.3c0.2,0,0.4-0.1,0.6-0.2
	c0.3-0.3,0.6-0.7,1-1.2c0.4-0.4,0.7-0.9,1.2-1.3c0.4-0.5,0.8-0.9,1.3-1.4c0.5-0.5,0.9-0.9,1.4-1.3c-0.2,0.7-0.5,1.3-0.6,2
	c-0.2,0.7-0.3,1.2-0.3,1.7c0,0.5,0.2,1,0.6,1.4c0.4,0.4,1,0.6,1.7,0.6c0.6,0,1.2-0.2,1.8-0.6c0.6-0.4,1.3-0.9,1.9-1.4
	c0.2-0.2,0.4-0.4,0.5-0.5c0,0.1,0,0.2,0,0.3c0,0.5,0.2,1,0.5,1.5c0.3,0.4,0.8,0.6,1.3,0.6c0.3,0,0.6-0.1,1-0.3s0.7-0.4,1-0.7
	c0.3-0.3,0.7-0.6,1-1c0.3-0.4,0.7-0.8,1-1.2c-0.2,0.5-0.3,1.1-0.5,1.7c-0.2,0.6-0.4,1.2-0.7,1.9c-1,0.2-2,0.7-3.1,1.3
	c-1,0.6-1.9,1.3-2.8,2.1c-0.8,0.8-1.5,1.7-2,2.6c-0.5,1-0.8,1.9-0.8,2.9c0,0.3,0.1,0.6,0.2,0.9c0.1,0.3,0.3,0.5,0.5,0.7
	c0.2,0.2,0.5,0.4,0.8,0.5c0.3,0.1,0.6,0.2,0.9,0.2c0.7,0,1.4-0.3,2.1-0.9c0.7-0.6,1.4-1.4,2-2.3c0.6-1,1.2-2,1.8-3.3
	c0.6-1.2,1.1-2.5,1.6-3.7c0.3-0.1,0.7-0.1,1-0.1c0.6,0,1,0.1,1.2,0.2c0.3,0.1,0.4,0.2,0.6,0.4c0.1,0.1,0.2,0.3,0.3,0.4
	c0.1,0.1,0.2,0.2,0.4,0.2c0.2,0,0.3-0.1,0.3-0.3C304.3,49.1,304.3,49,304.2,48.9z M238.2,44.9c-0.2,0.2-0.4,0.4-0.6,0.6
	c-0.2,0.2-0.5,0.4-0.7,0.5c-0.2,0.1-0.5,0.2-0.7,0.2c-0.1,0-0.1-0.1-0.2-0.2c0-0.1-0.1-0.3-0.1-0.5c0-0.5,0.1-0.9,0.2-1.3
	c0.1-0.4,0.3-0.8,0.6-1.2c0.5,0.6,1.1,1,1.9,1.2C238.6,44.5,238.4,44.7,238.2,44.9z M239.1,43.4c-0.4,0-0.7-0.1-1.1-0.3
	c-0.3-0.2-0.5-0.5-0.7-0.9c0.1-0.1,0.3-0.3,0.3-0.3c0.1-0.1,0.1-0.2,0.1-0.3c0-0.3-0.1-0.5-0.4-0.7c0.1-0.2,0.3-0.3,0.5-0.4
	c0.2-0.1,0.4-0.2,0.7-0.2c0.4,0,0.7,0.1,0.8,0.4c0.1,0.3,0.1,0.6,0.1,0.9C239.5,42.3,239.4,42.8,239.1,43.4z M297.1,52.1
	c-0.5,1-1,1.9-1.5,2.6c-0.5,0.8-1.1,1.4-1.6,1.9c-0.5,0.5-1.1,0.7-1.6,0.7c-0.2,0-0.4-0.1-0.4-0.3c0-0.8,0.2-1.5,0.5-2.3
	c0.4-0.8,0.8-1.5,1.4-2.2c0.6-0.7,1.3-1.3,2.1-1.9c0.8-0.6,1.6-1.1,2.4-1.4C298,50.1,297.6,51.1,297.1,52.1z M300.5,41.4
	c-0.4,0.6-0.7,1.1-1.2,1.6c-0.4,0.5-0.8,1-1.2,1.4c-0.4,0.4-0.8,0.7-1.2,0.9c-0.4,0.2-0.7,0.3-0.9,0.3c-0.1,0-0.1-0.1-0.1-0.2
	c0-0.4,0.1-1,0.4-1.6c0.2-0.6,0.6-1.2,0.9-1.8c0.4-0.6,0.8-1.1,1.3-1.5c0.5-0.4,1-0.6,1.4-0.6c0.3,0,0.5,0.1,0.5,0.3
	c0.1,0.2,0.1,0.4,0.1,0.6C300.6,41.1,300.5,41.3,300.5,41.4z M278,37.8c0-0.1,0.1-0.2,0.2-0.3c0.4-0.2,0.6-0.3,0.9-0.5
	c0.2-0.1,0.4-0.3,0.5-0.4c0.1-0.1,0.3-0.2,0.4-0.3c0.1-0.1,0.2-0.1,0.3-0.1c0.2,0,0.4,0.1,0.7,0.3c0.2,0.2,0.4,0.4,0.4,0.7
	c0,0.1-0.1,0.3-0.3,0.4c-0.2,0.2-0.4,0.3-0.7,0.5c-0.3,0.1-0.5,0.3-0.8,0.4c-0.3,0.1-0.5,0.1-0.6,0.1c-0.2,0-0.4-0.1-0.6-0.2
	C278.1,38.2,278,38,278,37.8z M227,26.1c-1.6,0-3.3,0.3-5,0.8v-1.7c1.4-0.4,2.8-0.5,4.1-0.5c0.5,0,1,0,1.5,0.1c0.5,0,1,0.1,1.4,0.3
	c0.4,0.2,0.8,0.3,1.2,0.6c0.4,0.2,0.7,0.5,1,0.8c0.3,0.3,0.5,0.7,0.7,1.1c0.2,0.4,0.3,0.8,0.3,1.3c0,0.8-0.2,1.6-0.5,2.3
	c-0.3,0.7-0.7,1.4-1.2,2c-0.5,0.6-1.1,1.2-1.7,1.7c-0.6,0.5-1.3,1-1.9,1.4c-0.1,0.1-0.3,0.2-0.4,0.3c-0.2,0.1-0.3,0.2-0.5,0.2
	c-0.2,0-0.4-0.1-0.7-0.3c-0.2-0.2-0.4-0.4-0.4-0.7c0-0.1,0-0.2,0.1-0.3c0.2-0.4,0.5-0.7,0.7-1.1c0.2-0.3,0.4-0.7,0.6-1.1
	c0.1-0.1,0.3-0.2,0.4-0.2c0.1,0,0.3,0.1,0.5,0.2c0.2,0.1,0.3,0.2,0.4,0.4c0.4-0.3,0.8-0.7,1.2-1.1c0.4-0.4,0.7-0.8,1-1.3
	c0.3-0.5,0.5-0.9,0.7-1.5c0.2-0.5,0.3-1,0.3-1.6c0-0.5-0.1-0.9-0.4-1.2c-0.2-0.3-0.5-0.5-0.9-0.7c-0.4-0.1-0.7-0.3-1.2-0.3
	C227.7,26.1,227.3,26.1,227,26.1z M113.5,68.9h-6.2v-7.8h6.2v1.6h-4.7v1.6h4.6v1.5h-4.6v1.6h4.7V68.9z M127.7,68.9h-1.6v-4.4
	l-2.1,4.4h-2l-2.1-4.4v4.4h-1.6v-7.8h1.6l3,6.2l3.1-6.2h1.6V68.9z M140.4,64.3c0,1-0.5,1.5-1.5,1.5h-4.5v3.1h-1.5v-7.8h6.1
	c0.9,0,1.5,0.7,1.5,1.6V64.3z M138.9,64.3v-1.6h-4.5v1.6H138.9z M149,69.1c-2.2,0-4-1.8-4-4c0-2.2,1.8-4,4-4c2.2,0,4,1.8,4,4
	S151.1,69.1,149,69.1z M149,62.6c-1.3,0-2.5,1.1-2.5,2.5c0,1.3,1.1,2.5,2.5,2.5c1.3,0,2.5-1.1,2.5-2.5
	C151.4,63.7,150.3,62.6,149,62.6z M169.1,61.2l-3,7.8h-1.6l-1.6-5l-1.7,5h-1.7l-2.8-7.8h1.8l2,5.6l1.9-5.6h1.2l1.8,5.6l2.1-5.6
	H169.1z M179.8,68.9h-6.2v-7.8h6.2v1.6h-4.7v1.6h4.6v1.5h-4.6v1.6h4.7V68.9z M192.4,68.9h-2.3l-3.6-3.1h-0.2v3.1h-1.6v-7.8h5.9
	c0.9,0,1.6,0.7,1.6,1.6v1.6c0,1-0.5,1.5-1.6,1.5h-1.9L192.4,68.9z M190.6,64.3v-1.6h-4.4v1.6H190.6z M203.2,68.9H197v-7.8h6.2v1.6
	h-4.7v1.6h4.6v1.5h-4.6v1.6h4.7V68.9z M215.8,67.4c0,1-0.5,1.5-1.5,1.5H208v-7.8h6.2c0.9,0,1.5,0.7,1.5,1.6V67.4z M214.2,67.4v-4.7
	h-4.7v4.7H214.2z M234.5,68.9h-6.2v-7.8h1.6v6.2h4.7V68.9z M240.6,68.9h-1.5v-7.8h1.5V68.9z M252.9,61.2l-3.2,7.8h-1.5l-3.1-7.8h1.8
	l2.1,5.7l2.2-5.7H252.9z M259,68.9h-1.5v-7.8h1.5V68.9z M271.8,68.9h-1l-5.2-5.3v5.3h-1.6v-7.8h1.3l4.9,5.1v-5.1h1.5V68.9z
	 M284.6,68.9h-6.2c-1,0-1.5-0.5-1.5-1.5v-4.7c0-0.9,0.5-1.6,1.5-1.6h6v1.6h-6v4.7h4.7v-1.6h-3.1v-1.5h4.7V68.9z"/>
</svg>
